<svg width="320" height="239" viewBox="0 0 320 239" fill="none" xmlns="http://www.w3.org/2000/svg">
<path d="M216.775 56.5893C216.815 57.2061 216.835 57.823 216.875 58.4199C216.875 58.5393 216.955 58.6985 217.094 58.6985C233.88 61.0066 250.805 59.0566 267.65 59.0964C272.414 59.0964 277.159 59.2755 281.903 59.7331C282.023 59.753 282.162 59.6337 282.182 59.5143C282.342 58.6985 282.521 57.8827 282.681 57.0668C282.761 56.6888 282.182 56.5296 282.103 56.9077C281.943 57.7235 281.764 58.5393 281.604 59.3551C281.704 59.2755 281.804 59.2158 281.883 59.1362C265.198 57.5046 248.452 59.5541 231.727 59.1959C226.882 59.0964 222.038 58.7781 217.234 58.1214C217.314 58.2209 217.373 58.3204 217.453 58.4C217.413 57.7832 217.393 57.1663 217.353 56.5694C217.353 56.2112 216.755 56.2112 216.775 56.5893Z" fill="#919B9B"/>
<path d="M217.274 56.8875C234.139 56.8875 251.024 56.8875 267.889 56.8875C272.673 56.8875 277.458 56.8875 282.242 56.8875C282.621 56.8875 282.621 56.2905 282.242 56.2905C265.377 56.2905 248.492 56.2905 231.627 56.2905C226.842 56.2905 222.058 56.2905 217.274 56.2905C216.895 56.2905 216.895 56.8875 217.274 56.8875Z" fill="#919B9B"/>
<path d="M220.902 56.4102C221.4 49.2669 221.819 42.1037 222.437 34.9803C222.517 34.0451 222.616 33.1298 222.776 32.2146C222.836 31.8763 222.855 31.1799 223.055 30.9013C223.314 30.5431 223.872 30.5431 224.271 30.4835C225.188 30.3243 226.723 29.7671 227.361 30.7023C227.54 30.9809 227.58 31.5579 227.64 31.8962C227.759 32.4931 227.839 33.0901 227.899 33.687C228.218 37.189 227.759 40.7507 227.5 44.2527C227.201 48.3118 226.902 52.3709 226.603 56.4301C226.583 56.8081 227.181 56.8081 227.201 56.4301C227.64 50.6199 228.118 44.8297 228.477 39.0196C228.637 36.3533 228.716 33.6273 228.059 31.0008C227.879 30.2646 227.6 29.6477 226.763 29.5682C225.487 29.4687 224.012 29.9064 222.776 30.1651C222.676 30.185 222.596 30.2845 222.576 30.3641C221.52 34.4829 221.56 38.9201 221.261 43.1384C220.942 47.5557 220.643 51.9929 220.324 56.4102C220.284 56.7882 220.882 56.7882 220.902 56.4102Z" fill="#919B9B"/>
<path d="M228.318 38.4426C230.75 44.5512 233.321 50.6001 236.013 56.5893C236.172 56.9475 236.69 56.6291 236.531 56.2908C233.86 50.3414 231.308 44.3323 228.896 38.2834C228.756 37.9253 228.178 38.0845 228.318 38.4426Z" fill="#919B9B"/>
<path d="M228.836 35.2387C229.334 33.826 230.869 33.05 232.305 33.4479C232.684 33.5474 232.843 32.9704 232.464 32.8709C230.71 32.3734 228.856 33.3683 228.258 35.0795C228.138 35.4576 228.716 35.5969 228.836 35.2387Z" fill="#919B9B"/>
<path d="M232.305 33.5676C236.252 41.2083 240.179 48.8689 244.126 56.5096C244.306 56.8479 244.824 56.5494 244.645 56.2112C240.697 48.5704 236.77 40.9098 232.823 33.2691C232.644 32.9109 232.125 33.2094 232.305 33.5676Z" fill="#919B9B"/>
<path d="M242.691 28.4339C243.329 37.6864 243.967 46.9388 244.585 56.1912C244.605 56.5693 245.203 56.5693 245.183 56.1912C244.545 46.9388 243.907 37.6864 243.289 28.4339C243.269 28.0559 242.671 28.0559 242.691 28.4339Z" fill="#919B9B"/>
<path d="M243.209 28.7521C244.226 27.8368 245.601 27.8368 246.877 28.0557C247.396 28.1353 247.954 28.2348 248.452 28.4138C249.369 28.7521 249.23 29.5878 249.269 30.4036C249.389 33.249 249.489 36.0944 249.608 38.9397C249.828 44.6902 250.067 50.4605 250.286 56.2109C250.306 56.589 250.904 56.589 250.884 56.2109C250.605 49.3263 250.346 42.4417 250.067 35.577C250.007 33.8658 249.927 32.1347 249.868 30.4235C249.828 29.548 249.947 28.4735 249.03 27.996C248.073 27.4986 246.598 27.3195 245.522 27.3394C244.485 27.3593 243.568 27.6378 242.81 28.3343C242.511 28.573 242.93 29.0108 243.209 28.7521Z" fill="#919B9B"/>
<path d="M232.783 33.2292C234.677 33.3486 236.531 33.9057 238.345 34.4231C240.02 34.9006 241.654 35.4976 243.07 36.5322C243.389 36.7511 243.688 36.2338 243.369 36.0149C241.894 34.9603 240.219 34.3435 238.485 33.846C236.611 33.3088 234.717 32.7716 232.763 32.6323C232.385 32.5925 232.385 33.1894 232.783 33.2292Z" fill="#919B9B"/>
<path d="M249.967 32.1747C250.844 31.9558 251.821 31.737 252.738 31.916C254.094 32.1946 254.373 33.3885 254.433 34.6022C254.532 37.0497 254.572 39.4772 254.632 41.9246C254.752 46.7398 254.811 51.5551 254.831 56.3703C254.831 56.7484 255.429 56.7484 255.429 56.3703C255.409 50.6199 255.33 44.8893 255.17 39.1588C255.13 37.766 255.091 36.393 255.051 35.0002C255.011 34.0849 255.031 33.0701 254.473 32.2941C253.436 30.8416 251.303 31.1997 249.828 31.5778C249.429 31.6972 249.588 32.2742 249.967 32.1747Z" fill="#919B9B"/>
<path d="M254.333 29.0306C254.333 30.8214 254.333 32.5923 254.333 34.3831C254.333 34.7612 254.931 34.7612 254.931 34.3831C254.931 32.5923 254.931 30.8214 254.931 29.0306C254.931 28.6526 254.333 28.6526 254.333 29.0306Z" fill="#919B9B"/>
<path d="M255.21 29.2493C255.37 29.309 255.549 29.3687 255.708 29.4284C255.728 29.5677 255.748 29.707 255.768 29.8662C255.808 30.1845 255.808 30.5228 255.848 30.8611C255.888 31.3784 255.928 31.9156 255.968 32.433C256.047 33.5473 256.107 34.6814 256.167 35.7957C256.306 38.1038 256.406 40.412 256.486 42.7201C256.665 47.2767 256.725 51.8333 256.725 56.3898C256.725 56.7679 257.323 56.7679 257.323 56.3898C257.323 50.719 257.204 45.0282 256.944 39.3574C256.805 36.5916 256.645 33.8258 256.446 31.06C256.406 30.3835 256.526 29.1499 255.908 28.6723C255.489 28.3539 254.911 28.4733 254.692 28.9509C254.552 29.309 255.051 29.6075 255.21 29.2493Z" fill="#919B9B"/>
<path d="M225.826 59.514C226.444 60.5487 227.042 62.1007 228.039 62.8369C229.015 63.5731 230.211 62.9165 231.288 63.2946C231.647 63.4139 231.806 62.8369 231.447 62.7175C230.491 62.3793 229.374 62.9165 228.517 62.3793C227.54 61.7823 226.922 60.1706 226.344 59.1956C226.145 58.8773 225.626 59.1757 225.826 59.514Z" fill="#919B9B"/>
<path d="M232.085 59.7728C232.006 60.8075 231.687 61.7427 231.168 62.6182C230.969 62.9564 231.487 63.2549 231.687 62.9166C232.285 61.9417 232.604 60.8871 232.683 59.7728C232.723 59.3947 232.125 59.3947 232.085 59.7728Z" fill="#919B9B"/>
<path d="M230.391 60.2699C230.57 61.1852 230.75 62.1005 230.949 63.0158C231.029 63.3938 231.607 63.2347 231.527 62.8566C231.348 61.9413 231.168 61.026 230.969 60.1107C230.889 59.7326 230.311 59.8918 230.391 60.2699Z" fill="#919B9B"/>
<path d="M231.109 60.2501C231.148 60.2501 231.188 60.27 231.228 60.2898C231.288 60.4092 231.288 60.5286 231.268 60.648C231.248 60.7873 231.188 60.9266 231.148 61.0659C231.069 61.3444 231.049 61.6031 231.129 61.8817C231.248 62.2597 231.766 62.1005 231.707 61.7225C231.607 61.1852 231.687 60.648 231.906 60.1506C231.707 60.1307 231.507 60.0909 231.328 60.071C231.268 60.6878 231.228 61.3245 231.168 61.9414C231.129 62.3194 231.727 62.3194 231.766 61.9414C231.826 61.3245 231.866 60.6878 231.926 60.071C231.966 59.7128 231.448 59.7128 231.348 59.9914C231.089 60.6082 231.049 61.2449 231.148 61.8817C231.348 61.822 231.527 61.7822 231.727 61.7225C231.547 61.1256 232.245 60.3893 231.647 59.8521C231.288 59.5337 230.71 59.6531 230.57 60.1108C230.411 60.4689 230.989 60.6281 231.109 60.2501Z" fill="#919B9B"/>
<path d="M262.347 55.8927C262.168 55.1565 262.088 54.4401 262.148 53.684C262.048 53.7835 261.948 53.883 261.849 53.9825C265.377 53.8034 268.906 53.5845 272.434 53.505C274.208 53.4652 275.983 53.4652 277.757 53.505C278.156 53.505 278.554 53.5249 278.933 53.5249C279.332 53.5447 280.149 53.4055 280.508 53.5845C281.305 53.9626 280.966 55.4947 280.966 56.1911C280.966 56.5692 281.564 56.5692 281.564 56.1911C281.564 55.2559 282.043 53.2662 280.767 53.0075C279.89 52.8284 278.853 52.9279 277.956 52.908C276.84 52.8881 275.723 52.8682 274.607 52.8881C270.361 52.908 266.115 53.1667 261.849 53.3856C261.689 53.3856 261.55 53.5248 261.55 53.684C261.51 54.4998 261.57 55.2758 261.789 56.0519C261.849 56.4299 262.427 56.2707 262.347 55.8927Z" fill="#919B9B"/>
<path d="M264.56 49.9035C264.799 50.9979 264.978 52.0923 265.058 53.2066C265.078 53.5846 265.676 53.5846 265.656 53.2066C265.576 52.0326 265.397 50.8785 265.138 49.7444C265.058 49.3862 264.48 49.5454 264.56 49.9035Z" fill="#919B9B"/>
<path d="M264.958 50.2819C267.37 50.0829 269.783 49.864 272.195 49.9635C274.467 50.063 276.76 50.7992 279.032 50.5605C278.933 50.461 278.833 50.3615 278.733 50.262C278.654 51.3166 278.773 52.3114 279.112 53.3262C279.232 53.6844 279.81 53.5252 279.69 53.1671C279.371 52.212 279.252 51.2768 279.331 50.262C279.351 50.1028 279.192 49.9436 279.032 49.9635C276.76 50.1824 274.467 49.4462 272.195 49.3666C269.783 49.2671 267.35 49.486 264.958 49.685C264.58 49.7049 264.58 50.3018 264.958 50.2819Z" fill="#919B9B"/>
<path d="M244.665 112.024C244.665 112.86 244.665 113.676 244.665 114.511C244.665 114.89 245.263 114.89 245.263 114.511C245.263 113.676 245.263 112.86 245.263 112.024C245.263 111.646 244.665 111.646 244.665 112.024Z" fill="#919B9B"/>
<path d="M244.964 111.825C260.473 111.825 275.983 111.825 291.492 111.825C291.871 111.825 291.871 111.229 291.492 111.229C275.983 111.229 260.473 111.229 244.964 111.229C244.565 111.229 244.565 111.825 244.964 111.825Z" fill="#919B9B"/>
<path d="M245.442 114.571C260.712 114.571 275.963 114.571 291.233 114.571C291.612 114.571 291.612 113.974 291.233 113.974C275.963 113.974 260.712 113.974 245.442 113.974C245.063 113.974 245.063 114.571 245.442 114.571Z" fill="#919B9B"/>
<path d="M291.193 112.024C291.193 112.601 291.193 113.178 291.193 113.755C291.193 114.133 291.791 114.133 291.791 113.755C291.791 113.178 291.791 112.601 291.791 112.024C291.791 111.646 291.193 111.646 291.193 112.024Z" fill="#919B9B"/>
<path d="M249.269 105.319C249.788 107.368 250.266 109.438 250.665 111.507C250.745 111.885 251.323 111.726 251.243 111.348C250.844 109.278 250.386 107.209 249.848 105.16C249.748 104.781 249.17 104.941 249.269 105.319Z" fill="#919B9B"/>
<path d="M259.636 105.14C259.157 107.189 258.759 109.238 258.46 111.308C258.4 111.686 258.978 111.845 259.038 111.467C259.337 109.398 259.736 107.328 260.214 105.299C260.294 104.921 259.716 104.761 259.636 105.14Z" fill="#919B9B"/>
<path d="M247.635 104.205C247.675 105.239 249.23 105.16 249.987 105.199C251.702 105.279 253.436 105.02 255.15 104.921C256.008 104.861 256.865 104.841 257.722 104.921C258.42 104.981 259.177 105.219 259.855 105.08C260.613 104.921 261.091 104.205 260.653 103.508C260.453 103.19 259.935 103.488 260.134 103.807C260.692 104.742 258.799 104.443 258.619 104.423C258.2 104.364 257.762 104.324 257.343 104.304C256.366 104.244 255.37 104.304 254.393 104.384C253.755 104.423 248.253 105.08 248.233 104.205C248.233 103.807 247.635 103.807 247.635 104.205Z" fill="#919B9B"/>
<path d="M248.333 104.125C247.974 103.011 251.064 103.13 251.582 103.11C252.499 103.07 253.436 103.03 254.353 102.991C254.851 102.971 260.035 102.831 259.895 103.21C259.775 103.568 260.354 103.727 260.473 103.369C261.071 101.598 254.592 102.374 253.755 102.414C252.2 102.473 250.466 102.334 248.951 102.633C248.153 102.792 247.475 103.389 247.755 104.264C247.874 104.642 248.452 104.483 248.333 104.125Z" fill="#919B9B"/>
<path d="M250.984 102.473C250.067 102.055 249.249 101.458 248.612 100.702C248.352 100.384 246.518 97.7374 247.595 97.5782C247.774 97.5583 247.874 97.2797 247.774 97.1404C247.196 96.3047 246.957 95.2302 246.658 94.2752C246.319 93.2405 246 92.2058 245.661 91.191C245.601 90.9721 245.502 90.7732 245.462 90.5543C245.362 90.1364 245.302 90.1364 245.801 90.0966C246.339 90.0568 246.618 90.4747 246.977 90.8329C247.655 91.5094 248.253 92.2456 248.791 93.0216C250.804 95.9267 251.921 99.3491 252.758 102.752C252.858 103.13 253.436 102.97 253.336 102.592C252.26 98.2547 250.685 93.7976 247.495 90.5145C247.057 90.0568 246.219 89.0023 245.482 89.1217C244.924 89.2211 244.764 89.8181 244.804 90.3155C244.884 91.4298 245.482 92.6435 245.841 93.718C246.239 94.9517 246.498 96.3843 247.256 97.4588C247.316 97.3195 247.376 97.1603 247.435 97.021C246.12 97.22 246.877 99.0506 247.236 99.7669C247.994 101.219 249.21 102.334 250.685 103.03C251.024 103.15 251.323 102.632 250.984 102.473Z" fill="#919B9B"/>
<path d="M251.662 97.021C251.602 94.494 251.542 91.8675 252.399 89.4599C252.818 88.2859 253.456 87.2314 254.193 86.2365C254.373 85.9778 254.572 85.5599 254.851 85.4008C255.051 85.0824 255.35 85.0426 255.728 85.3013C256.207 85.1819 256.446 85.3013 256.446 85.6594C256.685 86.1967 256.606 87.112 256.606 87.6691C256.606 89.0022 256.287 90.2359 255.968 91.5094C255.848 91.9471 255.748 92.4048 255.788 92.8425C255.828 93.3598 256.107 93.7578 256.247 94.2353C256.645 95.5884 255.948 96.9812 255.469 98.2149C254.991 99.5082 254.492 100.802 254.014 102.115C253.875 102.473 254.453 102.632 254.592 102.274C255.23 100.563 255.908 98.8715 256.506 97.1404C256.925 95.9267 257.124 94.8721 256.645 93.6782C256.008 92.0665 257.024 90.2558 257.164 88.6043C257.244 87.5298 257.423 85.6992 256.725 84.7441C255.21 82.6549 252.798 87.112 252.32 88.1068C250.964 90.8925 250.984 94.0165 251.064 97.0409C251.084 97.419 251.682 97.419 251.662 97.021Z" fill="#919B9B"/>
<path d="M246.638 92.1265C248.612 94.8922 249.788 98.2152 251.163 101.299C251.323 101.657 251.841 101.339 251.682 101.001C250.326 97.8968 249.13 94.5938 247.156 91.828C246.937 91.5096 246.419 91.8081 246.638 92.1265Z" fill="#919B9B"/>
<path d="M252.14 90.7137C252.22 91.7683 252.579 92.7035 253.237 93.5193C253.476 93.8178 253.894 93.3999 253.655 93.1014C253.117 92.405 252.798 91.5892 252.738 90.7137C252.718 90.3357 252.12 90.3357 252.14 90.7137Z" fill="#919B9B"/>
<path d="M254.851 90.5743C255.33 89.8579 255.828 89.1416 256.307 88.4253C256.526 88.1069 256.007 87.8085 255.788 88.1268C255.31 88.8431 254.811 89.5595 254.333 90.2758C254.134 90.5942 254.652 90.8926 254.851 90.5743Z" fill="#919B9B"/>
<path d="M260.792 90.1761C260.294 90.9721 259.576 91.5889 258.918 92.2256C258.2 92.9021 257.483 93.5985 256.765 94.2751C256.486 94.5337 256.905 94.9715 257.184 94.6929C258.559 93.3797 260.294 92.1062 261.31 90.4746C261.51 90.1562 260.991 89.8578 260.792 90.1761Z" fill="#919B9B"/>
<path d="M260.533 90.9721C260.573 92.0267 262.327 93.9767 260.971 94.6134C260.792 94.7129 260.792 94.9517 260.912 95.0909C261.37 95.6481 261.071 96.4838 261.011 97.1404C260.951 97.8766 261.011 98.6128 260.812 99.3291C260.453 100.702 259.177 101.518 258.041 102.234C257.722 102.433 258.021 102.951 258.34 102.752C259.715 101.876 261.131 100.881 261.45 99.17C261.609 98.2547 261.609 97.2996 261.689 96.3843C261.769 95.7277 261.749 95.2103 261.31 94.693C261.29 94.8522 261.27 95.0113 261.251 95.1705C263.144 94.2751 261.151 92.2456 261.111 91.0119C261.111 90.5941 260.513 90.5941 260.533 90.9721Z" fill="#919B9B"/>
<path d="M259.576 93.8973C258.2 96.106 257.024 98.4141 256.047 100.842C255.908 101.2 256.486 101.359 256.625 101.001C257.582 98.633 258.739 96.3646 260.094 94.1958C260.294 93.8575 259.775 93.5591 259.576 93.8973Z" fill="#919B9B"/>
<path d="M250.326 109.398C251.123 110.472 252.22 111.208 253.536 111.487C253.914 111.567 254.074 110.99 253.695 110.91C252.539 110.671 251.542 110.054 250.844 109.099C250.625 108.801 250.107 109.099 250.326 109.398Z" fill="#919B9B"/>
<path d="M249.987 106.95C252.041 108.522 254.213 110.77 256.845 111.308C257.224 111.387 257.383 110.81 257.004 110.73C254.453 110.213 252.3 107.965 250.286 106.433C249.987 106.194 249.688 106.711 249.987 106.95Z" fill="#919B9B"/>
<path d="M251.562 105.438C252.798 106.453 253.994 107.487 255.25 108.462C255.788 108.88 256.346 109.278 257.004 109.537C257.622 109.795 258.28 109.915 258.838 110.313C259.157 110.532 259.456 110.014 259.137 109.795C258.699 109.497 258.26 109.358 257.782 109.179C256.964 108.9 256.307 108.522 255.629 107.985C254.393 107.03 253.197 106.015 252.001 105.02C251.682 104.781 251.263 105.199 251.562 105.438Z" fill="#919B9B"/>
<path d="M254.831 105.16C255.988 106.353 257.383 107.229 258.978 107.746C259.337 107.866 259.496 107.289 259.137 107.169C257.642 106.672 256.346 105.856 255.25 104.722C254.991 104.463 254.552 104.881 254.831 105.16Z" fill="#919B9B"/>
<path d="M269.504 110.949C269.384 110.631 269.205 110.213 269.224 109.875C269.304 108.999 269.902 108.92 270.48 108.82C271.318 108.661 272.195 108.641 273.052 108.641C274.507 108.621 275.982 108.741 277.438 108.8C278.893 108.84 280.328 108.761 281.784 108.641C282.382 108.581 283.438 108.343 284.016 108.542C284.614 108.761 284.774 109.059 284.794 109.616C284.814 110.054 284.814 110.492 284.834 110.949C284.854 111.327 285.452 111.327 285.432 110.949C285.412 110.273 285.611 109.079 285.272 108.442C284.953 107.885 284.216 107.945 283.658 107.945C281.385 107.945 279.172 108.283 276.88 108.184C274.766 108.104 272.633 107.925 270.54 108.243C268.826 108.502 268.387 109.556 268.965 111.148C269.045 111.467 269.623 111.307 269.504 110.949Z" fill="#919B9B"/>
<path d="M273.73 107.746C273.889 107.388 274.029 107.03 274.188 106.672C274.368 106.652 274.547 106.632 274.727 106.592C274.966 106.572 275.185 106.592 275.424 106.572C275.943 106.572 276.441 106.552 276.959 106.552C278.056 106.532 279.132 106.532 280.229 106.512C281.245 106.493 282.282 106.493 283.299 106.473C283.558 106.473 283.817 106.473 284.076 106.453C284.395 106.453 284.495 106.373 284.594 106.612C284.714 106.91 284.495 107.746 284.455 108.064C284.415 108.442 285.013 108.442 285.053 108.064C285.093 107.587 285.392 106.592 285.153 106.154C284.953 105.796 284.654 105.856 284.256 105.856C282.342 105.856 280.408 105.915 278.494 105.935C277.597 105.955 276.7 105.955 275.803 105.975C275.125 105.975 274.288 105.896 273.67 106.214C272.952 106.592 272.613 107.567 273.311 108.144C273.61 108.403 274.029 107.985 273.73 107.746Z" fill="#919B9B"/>
<path d="M277.836 105.319C277.318 104.622 279.491 104.702 279.631 104.682C280.109 104.642 281.744 104.344 281.425 105.418C281.305 105.796 281.883 105.935 282.003 105.577C282.142 105.1 281.983 104.662 281.604 104.344C280.946 103.806 280.129 104.065 279.352 104.105C278.734 104.125 277.996 103.926 277.498 104.403C277.139 104.722 277.039 105.219 277.318 105.617C277.557 105.916 278.076 105.617 277.836 105.319Z" fill="#919B9B"/>
<path d="M247.336 115.009C248.093 116.044 248.99 116.899 250.047 117.615C250.366 117.834 250.665 117.317 250.346 117.098C249.389 116.442 248.532 115.646 247.854 114.691C247.615 114.392 247.097 114.691 247.336 115.009Z" fill="#919B9B"/>
<path d="M249.967 117.416C250.625 117.416 251.283 117.416 251.941 117.416C252.319 117.416 252.937 117.516 253.276 117.337C253.536 117.197 253.615 116.879 253.735 116.64C254.054 116.004 254.433 115.407 254.871 114.83C255.11 114.531 254.692 114.113 254.453 114.412C254.233 114.67 254.034 114.949 253.835 115.228C253.595 115.606 253.436 116.143 253.157 116.481C252.599 117.138 250.784 116.839 249.967 116.819C249.588 116.819 249.588 117.416 249.967 117.416Z" fill="#919B9B"/>
<path d="M252.18 114.969C252.339 115.566 252.499 116.183 252.678 116.78C252.778 117.158 253.356 116.999 253.256 116.621C253.097 116.024 252.937 115.407 252.758 114.81C252.658 114.432 252.08 114.591 252.18 114.969Z" fill="#919B9B"/>
<path d="M276.481 114.869C276.8 115.526 277.139 116.163 277.557 116.76C277.777 117.078 278.056 117.575 278.435 117.755C278.833 117.954 279.391 117.794 279.79 117.755C280.508 117.675 281.225 117.615 281.943 117.536C282.322 117.496 282.322 116.899 281.943 116.939C281.465 116.979 280.986 117.038 280.508 117.078C280.089 117.118 279.471 117.297 279.072 117.217C278.036 117.018 277.398 115.387 276.999 114.551C276.82 114.213 276.301 114.511 276.481 114.869Z" fill="#919B9B"/>
<path d="M281.963 114.372C281.724 115.227 281.604 116.103 281.624 116.978C281.644 117.356 282.242 117.356 282.222 116.978C282.202 116.143 282.302 115.327 282.521 114.531C282.641 114.173 282.063 114.014 281.963 114.372Z" fill="#919B9B"/>
<path d="M282.222 117.277C283.02 116.521 283.777 115.725 284.515 114.909C284.774 114.63 284.355 114.193 284.096 114.491C283.359 115.307 282.601 116.103 281.804 116.859C281.524 117.118 281.943 117.536 282.222 117.277Z" fill="#919B9B"/>
<path d="M154.199 56.5892C154.199 62.2004 154.199 67.7916 154.199 73.4028C154.199 73.7808 154.797 73.7808 154.797 73.4028C154.797 67.7916 154.797 62.2004 154.797 56.5892C154.797 56.2111 154.199 56.2111 154.199 56.5892Z" fill="#919B9B"/>
<path d="M154.677 73.8606C161.794 73.8606 168.931 73.8606 176.048 73.8606C176.427 73.8606 176.427 73.2637 176.048 73.2637C168.931 73.2637 161.794 73.2637 154.677 73.2637C154.279 73.2637 154.279 73.8606 154.677 73.8606Z" fill="#919B9B"/>
<path d="M154.677 56.8875C161.595 56.8875 168.492 56.8875 175.41 56.8875C175.789 56.8875 175.789 56.2905 175.41 56.2905C168.492 56.2905 161.595 56.2905 154.677 56.2905C154.279 56.2905 154.279 56.8875 154.677 56.8875Z" fill="#919B9B"/>
<path d="M175.41 56.5892C175.41 62.2004 175.41 67.7916 175.41 73.4028C175.41 73.7808 176.008 73.7808 176.008 73.4028C176.008 67.7916 176.008 62.2004 176.008 56.5892C176.008 56.2111 175.41 56.2111 175.41 56.5892Z" fill="#919B9B"/>
<path d="M165.323 56.0918C165.303 55.8331 165.343 55.5944 165.462 55.3556C165.522 55.2163 165.761 54.8581 165.901 54.9576C166.06 55.0571 166.12 55.5148 166.14 55.6739C166.2 55.9724 166.2 56.2709 166.16 56.5693C166.12 56.9474 166.718 56.9474 166.758 56.5693C166.798 56.052 166.758 55.5347 166.579 55.0372C166.459 54.7189 166.299 54.3408 165.921 54.301C165.103 54.2015 164.685 55.4551 164.725 56.0719C164.744 56.4897 165.343 56.4897 165.323 56.0918Z" fill="#919B9B"/>
<path d="M155.335 58.5194C155.335 62.9964 155.335 67.4535 155.335 71.9304C155.335 72.3085 155.933 72.3085 155.933 71.9304C155.933 67.4535 155.933 62.9964 155.933 58.5194C155.933 58.1413 155.335 58.1413 155.335 58.5194Z" fill="#919B9B"/>
<path d="M155.634 72.2288C161.894 72.2288 168.154 72.2288 174.413 72.2288C174.792 72.2288 174.792 71.6318 174.413 71.6318C168.154 71.6318 161.894 71.6318 155.634 71.6318C155.255 71.6318 155.255 72.2288 155.634 72.2288Z" fill="#919B9B"/>
<path d="M174.892 71.7708C174.892 67.2938 174.892 62.8367 174.892 58.3597C174.892 57.9817 174.294 57.9817 174.294 58.3597C174.294 62.8367 174.294 67.2938 174.294 71.7708C174.294 72.1687 174.892 72.1687 174.892 71.7708Z" fill="#919B9B"/>
<path d="M155.794 58.9768C161.834 58.9768 167.874 58.9768 173.935 58.9768C174.313 58.9768 174.313 58.3799 173.935 58.3799C167.894 58.3799 161.854 58.3799 155.794 58.3799C155.415 58.3799 155.415 58.9768 155.794 58.9768Z" fill="#919B9B"/>
<path d="M155.893 69.0649C158.226 68.3685 160.598 67.7516 162.911 68.8261C164.565 69.6021 166.001 70.7761 167.855 71.1144C168.233 71.174 168.393 70.6169 168.014 70.5373C165.901 70.1394 164.306 68.6072 162.293 67.9307C160.12 67.2144 157.847 67.8511 155.734 68.4878C155.375 68.6072 155.535 69.1843 155.893 69.0649Z" fill="#919B9B"/>
<path d="M163.668 68.7269C166.519 67.732 169.489 67.3738 172.479 67.6723C172.858 67.7121 172.858 67.1152 172.479 67.0754C169.429 66.7769 166.399 67.1351 163.509 68.1499C163.15 68.2891 163.309 68.8662 163.668 68.7269Z" fill="#919B9B"/>
<path d="M164.286 64.1103C164.067 63.7323 164.127 63.1751 164.505 62.9165C164.844 62.6777 165.383 62.7772 165.622 63.0955C165.861 63.4338 165.721 63.971 165.343 64.17C164.904 64.3889 164.406 63.971 164.406 63.5333C164.406 63.1552 163.808 63.1552 163.808 63.5333C163.788 64.3292 164.605 65.0057 165.403 64.7869C166.14 64.5879 166.539 63.6527 166.22 62.9762C165.901 62.2598 164.944 62.0012 164.266 62.3593C163.529 62.7573 163.349 63.7323 163.748 64.4287C163.967 64.7471 164.466 64.4486 164.286 64.1103Z" fill="#919B9B"/>
<path d="M261.39 59.4742C262.108 60.4293 262.247 61.7226 263.124 62.5583C263.942 63.3543 264.918 63.2349 265.915 62.8767C266.274 62.7573 266.115 62.1803 265.756 62.2997C265.217 62.4788 264.599 62.6777 264.041 62.4589C263.563 62.2599 263.244 61.8221 263.005 61.3645C262.626 60.6283 262.407 59.8324 261.908 59.1558C261.669 58.8574 261.151 59.1558 261.39 59.4742Z" fill="#919B9B"/>
<path d="M265.835 62.6382C266.792 61.8224 267.63 60.8872 268.347 59.8525C268.567 59.5342 268.048 59.2357 267.829 59.5541C267.151 60.549 266.334 61.4444 265.417 62.2204C265.118 62.4591 265.536 62.8969 265.835 62.6382Z" fill="#919B9B"/>
<path d="M264.38 59.2556C264.659 59.9122 264.779 60.5887 264.759 61.2851C264.739 61.6632 265.337 61.6632 265.357 61.2851C265.377 60.4693 265.217 59.6933 264.898 58.9571C264.759 58.5989 264.241 58.8974 264.38 59.2556Z" fill="#919B9B"/>
<path d="M248.412 137.095C248.412 139.741 248.412 142.408 248.412 145.054C248.412 145.432 249.01 145.432 249.01 145.054C249.01 142.408 249.01 139.741 249.01 137.095C249.01 136.717 248.412 136.717 248.412 137.095Z" fill="#919B9B"/>
<path d="M241.136 146.149C248.173 146.149 255.23 146.149 262.267 146.149C262.646 146.149 262.646 145.552 262.267 145.552C255.23 145.552 248.173 145.552 241.136 145.552C240.757 145.552 240.757 146.149 241.136 146.149Z" fill="#919B9B"/>
<path d="M252.599 146.646C252.599 148.297 252.599 149.969 252.599 151.62C252.599 151.998 253.197 151.998 253.197 151.62C253.197 149.969 253.197 148.297 253.197 146.646C253.197 146.268 252.599 146.268 252.599 146.646Z" fill="#919B9B"/>
<path d="M240.937 152.516C247.176 152.516 253.436 152.516 259.676 152.516C260.054 152.516 260.054 151.919 259.676 151.919C253.436 151.919 247.176 151.919 240.937 151.919C240.558 151.919 240.558 152.516 240.937 152.516Z" fill="#919B9B"/>
<path d="M245.621 153.014C245.621 154.267 245.621 155.54 245.621 156.794C245.621 157.172 246.219 157.172 246.219 156.794C246.219 155.54 246.219 154.267 246.219 153.014C246.219 152.635 245.621 152.635 245.621 153.014Z" fill="#919B9B"/>
<path d="M247.615 56.6685C247.615 55.8328 247.455 54.7782 247.615 53.9624C247.834 52.8084 249.449 53.0272 250.386 52.9675C250.765 52.9476 250.765 52.3507 250.386 52.3706C249.628 52.4104 248.831 52.4104 248.073 52.5298C247.735 52.5895 247.435 52.689 247.236 52.9874C246.997 53.3456 247.037 53.843 247.037 54.2609C247.037 55.0568 247.037 55.8726 247.037 56.6685C247.017 57.0665 247.615 57.0665 247.615 56.6685Z" fill="#919B9B"/>
<path d="M244.106 34.443C245.92 33.9456 247.734 34.0649 249.469 34.7614C249.828 34.9006 249.987 34.3236 249.628 34.1843C247.794 33.4481 245.86 33.3486 243.947 33.866C243.568 33.9853 243.727 34.5624 244.106 34.443Z" fill="#919B9B"/>
<path d="M243.369 32.6525C244.963 31.5581 246.877 31.3592 248.671 32.0755C249.03 32.2148 249.19 31.6377 248.831 31.4984C246.917 30.7224 244.764 30.9612 243.07 32.1352C242.751 32.354 243.05 32.8714 243.369 32.6525Z" fill="#919B9B"/>
<path d="M236.89 43.0788C236.252 43.5165 235.036 44.0935 234.856 44.9292C234.777 45.367 234.976 45.765 235.136 46.1629C235.415 46.8593 235.694 47.5557 235.993 48.2522C237.149 50.9781 238.445 53.6444 239.88 56.2311C240.06 56.5694 240.578 56.2709 240.398 55.9327C239.302 53.9429 238.285 51.9133 237.348 49.844C236.85 48.7496 236.372 47.6353 235.933 46.5211C235.674 45.8644 235.315 45.2874 235.793 44.6109C236.073 44.2129 236.79 43.8747 237.209 43.5961C237.508 43.3772 237.209 42.8599 236.89 43.0788Z" fill="#919B9B"/>
<path d="M153.063 140.597C151.428 141.811 149.454 143.761 148.737 146.547C148.218 148.616 148.717 149.83 148.537 152.496C148.418 154.346 147.939 156.953 146.404 160.057C142.916 159.341 137.055 158.644 130.137 160.236C126.011 161.191 122.701 162.684 120.269 164.037C120.648 164.275 121.166 164.554 121.824 164.733C125.552 165.748 129.479 162.624 129.599 162.843C129.719 163.042 125.213 165.151 125.452 166.982C125.612 168.215 127.825 168.872 130.117 169.568C132.051 170.145 133.885 170.702 136.337 170.424C139.706 170.046 142.038 168.354 143.075 167.479C144.072 167.976 145.547 168.633 147.401 169.21C150.81 170.245 155.515 171.677 158.644 169.727C160.678 168.454 161.296 165.469 162.452 159.54C163.847 152.317 164.505 148.696 162.631 145.731C160.179 141.771 155.136 140.856 153.063 140.597Z" fill="white" stroke="#161616" stroke-width="1.79528" stroke-miterlimit="10"/>
<path d="M145.766 160.276C148.178 161.172 150.172 162.803 151.547 164.972C151.747 165.29 152.265 164.992 152.066 164.674C150.61 162.366 148.477 160.654 145.926 159.699C145.547 159.56 145.407 160.137 145.766 160.276Z" fill="#161616"/>
<path d="M132.928 164.196C130.556 164.594 128.642 166.186 127.785 168.414C127.645 168.772 128.223 168.931 128.363 168.573C129.14 166.544 130.935 165.131 133.088 164.773C133.466 164.713 133.307 164.136 132.928 164.196Z" fill="#161616"/>
<path d="M135.719 166.185C134.862 166.703 134.064 167.3 133.307 167.936C132.809 168.374 132.25 168.891 132.37 169.608C132.669 171.498 134.942 171.08 136.178 170.603C136.536 170.463 136.377 169.886 136.018 170.026C135.48 170.225 134.882 170.483 134.304 170.463C133.367 170.423 132.529 169.528 133.327 168.712C134.084 167.916 135.081 167.28 136.018 166.683C136.337 166.484 136.038 165.966 135.719 166.185Z" fill="#161616"/>
<path d="M171.662 116.103C170.645 116.441 169.349 116.959 167.894 117.675C167.476 117.874 166.419 118.411 165.283 119.147C163.528 120.262 162.253 121.436 160.797 122.908C158.943 124.798 157.069 126.689 154.837 129.713C152.963 132.26 150.052 136.259 147.959 142.129C147.122 144.457 146.643 146.467 146.364 147.9C147.461 147.263 148.457 146.944 149.235 146.765C153.72 145.751 158.026 148.019 162.113 150.148C163.648 150.944 164.864 151.72 165.701 152.257C166.14 150.108 166.578 147.939 167.017 145.79C167.396 143.98 167.755 142.149 168.133 140.338C168.712 139.841 169.489 139.105 170.346 138.15C171.961 136.319 175.17 132.678 175.609 127.624C176.147 121.794 172.679 117.337 171.662 116.103Z" fill="#EC615B"/>
<path d="M170.486 116.342C168.353 116.66 166.519 117.794 164.864 119.108C162.95 120.6 161.156 122.251 159.482 124.002C156.212 127.385 153.362 131.166 151.009 135.245C150.81 135.583 151.328 135.881 151.528 135.543C153.8 131.603 156.511 127.942 159.661 124.659C161.196 123.067 162.811 121.555 164.505 120.142C166.319 118.65 168.253 117.257 170.645 116.899C171.024 116.859 170.865 116.282 170.486 116.342Z" fill="#161616"/>
<path d="M169.649 138.07C168.173 139.562 166.658 141.015 165.123 142.427C164.844 142.686 165.263 143.104 165.542 142.845C167.077 141.433 168.592 139.98 170.067 138.488C170.326 138.209 169.908 137.791 169.649 138.07Z" fill="#161616"/>
<path d="M167.575 140.796C166.878 144.616 166.2 148.457 165.502 152.277C165.642 152.217 165.801 152.158 165.941 152.098C162.771 149.889 159.242 148.238 155.495 147.203C152.564 146.407 148.836 145.631 146.324 147.84C146.045 148.099 146.464 148.516 146.743 148.258C149.295 145.989 153.421 147.183 156.312 148.059C159.641 149.073 162.771 150.626 165.622 152.595C165.781 152.695 166.02 152.595 166.06 152.416C166.758 148.596 167.436 144.756 168.133 140.935C168.213 140.577 167.635 140.418 167.575 140.796Z" fill="#161616"/>
<path d="M151.149 134.966C149.075 139.005 146.484 143.164 146.304 147.84C146.285 148.218 146.883 148.218 146.902 147.84C147.082 143.283 149.634 139.224 151.667 135.265C151.826 134.926 151.308 134.628 151.149 134.966Z" fill="#161616"/>
<path opacity="0.4" d="M168.871 127.445C165.303 134.528 163.369 140.498 162.233 144.676C160.578 150.805 160 155.64 155.714 159.659C155.016 160.316 152.963 162.206 149.733 163.38C142.955 165.827 137.932 162.524 133.666 166.026C133.187 166.424 131.772 167.419 131.931 168.553C132.091 169.628 133.566 170.185 133.785 170.285C135.54 170.961 137.354 170.265 139.626 169.349C142.198 168.315 141.919 167.957 143.075 167.758C145.507 167.34 146.624 168.872 149.853 169.887C151.229 170.304 155.295 171.578 158.226 169.887C160.379 168.633 161.037 166.285 162.073 162.325C162.791 159.639 163.528 155.719 163.409 150.785C164.206 151.402 165.004 152.018 165.801 152.635C166.838 144.238 167.854 135.842 168.871 127.445Z" fill="#3D3D3D"/>
<path opacity="0.38" d="M167.675 136.061C164.944 141.214 163.608 145.572 162.891 148.517C161.455 154.426 161.914 157.212 159.96 161.37C157.867 165.887 154.478 168.752 152.126 170.384C153.441 170.683 156.611 171.24 158.904 169.449C160.518 168.195 160.937 166.405 161.555 163.48C162.332 159.878 163.15 155.779 163.947 151.282C164.565 151.68 165.183 152.078 165.801 152.476C166.439 147.024 167.057 141.532 167.675 136.061Z" fill="#3D3D3D"/>
<path d="M171.244 115.705C170.526 120.381 169.828 125.097 169.15 129.833C166.519 148.198 164.246 166.245 162.333 183.994C162.372 184.591 162.532 185.546 163.13 186.501C163.728 187.476 164.525 187.974 164.904 188.232C168.532 190.819 170.346 192.132 172.181 193.008C180.972 197.246 190.7 196.748 190.7 196.748C192.754 196.649 196.84 196.39 201.226 194.639C201.465 194.54 203.14 193.764 206.489 192.192C209.519 190.779 210.057 190.501 210.795 189.824C212.549 188.212 213.227 186.223 213.685 184.81C214.662 181.805 214.563 179.258 214.523 178.642C214.523 178.642 214.323 173.687 214.184 144.756C214.164 138.866 214.742 130.211 217.852 119.525C214.622 117.954 211.592 116.501 207.944 114.75C205.432 113.536 203.1 112.422 199.751 112.024C198.794 111.905 197.937 111.865 196.661 111.885C191.478 111.925 187.212 112.72 185.378 113.039C181.809 113.616 176.985 114.491 171.244 115.705Z" fill="#EC615B"/>
<path d="M171.084 116.402C177.264 115.088 183.504 114.034 189.763 113.258C190.042 113.218 190.202 112.86 189.923 112.701C189.843 112.661 189.763 112.601 189.663 112.561C189.325 112.362 189.026 112.88 189.364 113.079C189.444 113.118 189.524 113.178 189.624 113.218C189.683 113.039 189.723 112.84 189.783 112.661C183.464 113.437 177.164 114.491 170.944 115.825C170.546 115.904 170.705 116.481 171.084 116.402Z" fill="#161616"/>
<path d="M169.23 126.828C167.037 142.428 165.044 158.047 163.249 173.707C163.03 175.677 162.811 177.627 162.592 179.597C162.412 181.308 161.914 183.238 162.133 184.949C162.332 186.461 163.529 187.416 164.625 188.332C165.821 189.327 167.077 190.262 168.393 191.117C173.795 194.6 180.115 196.689 186.534 197.067C194.169 197.505 201.844 195.555 208.363 191.575C208.682 191.376 208.383 190.859 208.064 191.058C196.661 198.002 182.148 198.281 170.526 191.695C169.19 190.938 167.894 190.103 166.658 189.187C165.402 188.252 163.369 186.979 162.851 185.447C162.612 184.71 162.731 183.895 162.811 183.119C162.911 182.144 163.03 181.149 163.13 180.174C163.329 178.343 163.529 176.513 163.748 174.682C164.605 167.22 165.482 159.779 166.439 152.337C167.516 143.88 168.632 135.424 169.828 126.987C169.868 126.609 169.29 126.45 169.23 126.828Z" fill="#161616"/>
<path d="M198.594 111.845C202.103 112.541 205.392 114.153 208.662 115.526C211.871 116.879 215.44 117.973 218.27 120.043C218.589 120.262 218.888 119.744 218.569 119.525C215.798 117.496 212.31 116.421 209.18 115.108C205.791 113.695 202.382 112.004 198.754 111.268C198.375 111.188 198.216 111.765 198.594 111.845Z" fill="#161616"/>
<path d="M214.224 145.591C213.905 153.968 213.586 162.345 213.885 170.702C214.024 174.761 214.662 178.98 213.905 183.019C213.267 186.342 211.393 189.665 208.064 190.898C207.705 191.038 207.864 191.615 208.223 191.476C213.526 189.506 214.901 183.477 214.822 178.423C214.782 175 214.483 171.578 214.403 168.136C214.323 164.634 214.363 161.151 214.423 157.649C214.503 153.63 214.662 149.611 214.802 145.591C214.842 145.193 214.244 145.193 214.224 145.591Z" fill="#161616"/>
<path opacity="0.38" d="M211.353 140.876C210.296 144.497 208.642 148.457 206.09 152.396C194.667 169.926 173.755 173.428 168.413 174.165C175.589 174.921 182.846 175.736 190.182 176.612C198.276 177.567 206.27 178.582 214.144 179.617C213.646 170.722 213.646 163.4 213.765 158.167C213.984 147.342 214.762 138.587 213.347 138.309C213.008 138.229 212.41 138.607 211.353 140.876Z" fill="#3D3D3D"/>
<path opacity="0.42" d="M213.805 147.382C213.087 149.491 211.991 152.476 210.376 155.918C208.103 160.793 205.931 165.489 203.12 168.374C195.265 176.433 179.915 172.951 179.875 173.508C179.855 173.826 185.477 174.722 213.865 177.328C213.865 167.34 213.845 157.371 213.805 147.382Z" fill="#3D3D3D"/>
<path d="M249.568 229.421C176.407 219.671 103.225 209.921 30.0629 200.191C51.6526 187.695 73.2623 175.199 94.852 162.704C160.857 169.19 226.882 175.697 292.887 182.183C278.434 197.923 264.001 213.682 249.568 229.421Z" fill="white" stroke="#161616" stroke-width="1.79528" stroke-miterlimit="10"/>
<path d="M29.3453 201.882C102.687 211.592 176.028 221.302 249.349 231.013" stroke="#161616" stroke-width="9.57483" stroke-miterlimit="10"/>
<path d="M247.954 231.45C263.324 215.233 278.694 198.997 294.044 182.78" stroke="#161616" stroke-width="9.57483" stroke-miterlimit="10"/>
<path d="M223.473 188.829C215.998 194.659 208.681 200.668 201.485 206.836C201.186 207.095 201.624 207.513 201.904 207.254C209.1 201.086 216.436 195.077 223.892 189.247C224.191 189.028 223.772 188.59 223.473 188.829Z" fill="#161616"/>
<path d="M201.764 207.155C204.116 207.652 206.509 207.652 208.921 207.672C211.632 207.712 214.184 207.991 216.775 208.747C221.639 210.16 226.404 211.095 231.487 210.975C231.866 210.975 231.866 210.378 231.487 210.378C228.876 210.438 226.264 210.279 223.673 209.861C221.241 209.463 218.928 208.747 216.556 208.09C214.283 207.454 212.011 207.155 209.638 207.115C207.047 207.056 204.455 207.135 201.903 206.598C201.545 206.498 201.385 207.075 201.764 207.155Z" fill="#161616"/>
<path d="M223.912 189.267C231.806 189.904 239.641 191.157 247.336 193.027C247.715 193.127 247.874 192.55 247.495 192.45C239.76 190.56 231.866 189.307 223.912 188.67C223.533 188.63 223.533 189.227 223.912 189.267Z" fill="#161616"/>
<path d="M231.946 210.617C237.508 205.126 242.85 199.395 247.914 193.426C248.153 193.127 247.734 192.709 247.495 193.008C242.432 198.957 237.089 204.688 231.527 210.2C231.248 210.478 231.667 210.896 231.946 210.617Z" fill="#161616"/>
<path d="M208.721 204.788C215.579 203.952 222.516 204.807 228.955 207.315C229.314 207.454 229.474 206.877 229.115 206.737C222.636 204.23 215.619 203.355 208.721 204.191C208.343 204.23 208.343 204.827 208.721 204.788Z" fill="#161616"/>
<path d="M219.108 202.598C223.334 202.917 227.5 203.573 231.627 204.548C232.006 204.648 232.165 204.071 231.786 203.971C227.62 202.976 223.394 202.32 219.108 202.001C218.709 201.982 218.729 202.579 219.108 202.598Z" fill="#161616"/>
<path d="M215.938 198.201C222.297 198.34 228.597 199.256 234.737 200.947C235.115 201.046 235.275 200.469 234.896 200.37C228.716 198.678 222.357 197.743 215.938 197.604C215.559 197.604 215.559 198.201 215.938 198.201Z" fill="#161616"/>
<path d="M223.832 196.37C227.261 196.848 230.65 197.445 234.039 198.161C234.418 198.241 234.577 197.664 234.198 197.584C230.809 196.868 227.42 196.271 223.992 195.793C223.613 195.734 223.453 196.311 223.832 196.37Z" fill="#161616"/>
<path d="M219.466 209.722C218.25 211.592 217.034 213.462 215.798 215.313C215.679 215.492 215.838 215.79 216.057 215.77C225.885 214.656 235.853 215.293 245.462 217.641C245.84 217.74 246 217.163 245.621 217.064C235.953 214.696 225.945 214.059 216.057 215.154C216.137 215.313 216.237 215.452 216.317 215.611C217.533 213.741 218.749 211.871 219.985 210.02C220.204 209.702 219.686 209.403 219.466 209.722Z" fill="#161616"/>
<path d="M243.568 198.42C247.415 198.34 251.243 198.261 255.091 198.181C254.991 198.062 254.891 197.922 254.811 197.803C252.16 204.11 249.489 210.398 246.837 216.706C246.698 217.064 247.276 217.223 247.416 216.865C250.067 210.557 252.738 204.27 255.39 197.962C255.469 197.783 255.27 197.584 255.11 197.584C251.263 197.664 247.435 197.743 243.588 197.823C243.189 197.843 243.189 198.44 243.568 198.42Z" fill="#161616"/>
<path d="M228.995 213.243C230.012 213.044 231.029 213.005 232.065 213.084C232.444 213.104 232.444 212.507 232.065 212.487C230.969 212.408 229.912 212.467 228.836 212.666C228.457 212.726 228.617 213.303 228.995 213.243Z" fill="#161616"/>
<path d="M234.657 213.303C237.787 213.422 240.916 213.721 244.026 214.198C244.405 214.258 244.565 213.681 244.186 213.621C241.036 213.124 237.846 212.825 234.657 212.706C234.278 212.686 234.278 213.283 234.657 213.303Z" fill="#161616"/>
<path d="M234.836 209.563C235.574 209.563 236.312 209.563 237.069 209.563C237.448 209.563 237.448 208.966 237.069 208.966C236.331 208.966 235.594 208.966 234.836 208.966C234.458 208.966 234.458 209.563 234.836 209.563Z" fill="#161616"/>
<path d="M239.481 209.503C241.933 209.563 244.365 209.802 246.797 210.2C247.176 210.259 247.336 209.682 246.957 209.623C244.485 209.225 241.993 208.986 239.481 208.906C239.102 208.906 239.102 209.503 239.481 209.503Z" fill="#161616"/>
<path d="M239.102 206.1C241.893 206.14 244.664 206.299 247.435 206.618C247.814 206.658 247.814 206.061 247.435 206.021C244.664 205.702 241.893 205.523 239.102 205.503C238.724 205.484 238.724 206.08 239.102 206.1Z" fill="#161616"/>
<path d="M220.383 212.706C221.719 212.746 223.035 212.587 224.351 212.269C224.729 212.169 224.57 211.592 224.191 211.692C222.935 212.01 221.679 212.149 220.383 212.109C220.005 212.109 220.005 212.706 220.383 212.706Z" fill="#161616"/>
<path d="M229.853 181.527C229.334 182.164 228.736 183.457 229.354 184.233C229.733 184.711 230.451 184.611 230.989 184.631C231.966 184.671 232.942 184.731 233.919 184.77C237.886 184.949 241.833 185.148 245.801 185.328C246.179 185.347 246.179 184.75 245.801 184.731C242.87 184.591 239.96 184.452 237.029 184.313C235.594 184.253 234.178 184.173 232.743 184.114C232.045 184.074 231.308 184.114 230.61 184.014C230.092 183.935 229.713 183.915 229.733 183.278C229.753 182.781 229.972 182.323 230.271 181.945C230.51 181.646 230.092 181.209 229.853 181.527Z" fill="#161616"/>
<path d="M230.391 182.283C233.74 182.402 237.089 182.502 240.438 182.621C242.073 182.681 243.727 182.721 245.362 182.78C246.837 182.84 248.392 182.939 249.449 184.074C249.708 184.352 250.127 183.934 249.868 183.656C249.07 182.78 247.994 182.442 246.837 182.283C245.123 182.064 243.349 182.104 241.614 182.044C237.867 181.925 234.119 181.785 230.391 181.666C230.012 181.686 230.012 182.283 230.391 182.283Z" fill="#161616"/>
<path d="M245.601 185.347C247.136 185.367 248.591 184.889 249.827 183.974C250.126 183.755 249.827 183.238 249.528 183.457C248.372 184.312 247.056 184.77 245.601 184.75C245.203 184.75 245.203 185.347 245.601 185.347Z" fill="#161616"/>
<path d="M246.08 182.283C245.242 182.84 244.864 183.875 245.143 184.83C245.242 185.188 245.821 185.049 245.721 184.671C245.522 183.974 245.761 183.198 246.379 182.78C246.698 182.581 246.399 182.064 246.08 182.283Z" fill="#161616"/>
<path d="M164.685 202.917C140.464 198.778 116.242 194.639 92.0213 190.501C106.733 184.571 121.446 178.661 136.158 172.732C159.163 177.846 182.168 182.959 205.153 188.073C191.677 193.028 178.181 197.962 164.685 202.917Z" fill="white" stroke="#161616" stroke-width="1.79528" stroke-miterlimit="10"/>
<path d="M163.688 203.215C163.768 203.454 163.828 203.713 163.907 203.952C164.007 204.27 164.485 204.21 164.485 203.872C164.485 203.673 164.485 203.494 164.485 203.295C164.485 202.917 163.887 202.917 163.887 203.295C163.887 203.534 163.847 203.753 163.748 203.972C163.947 203.972 164.127 203.972 164.326 203.972C164.246 203.713 164.226 203.474 164.286 203.196C164.107 203.215 163.927 203.235 163.748 203.275C163.808 203.335 163.808 203.375 163.768 203.434C163.947 203.454 164.127 203.474 164.306 203.514C164.266 203.375 164.286 203.255 164.366 203.136C164.186 203.076 163.987 203.036 163.808 202.977C163.768 203.295 163.728 203.594 163.688 203.912C163.668 204.071 163.848 204.21 163.987 204.21C164.166 204.21 164.266 204.071 164.286 203.912C164.326 203.594 164.366 203.295 164.406 202.977C164.446 202.678 163.987 202.599 163.847 202.817C163.688 203.076 163.648 203.375 163.728 203.673C163.788 203.932 164.147 203.952 164.266 203.753C164.426 203.514 164.426 203.215 164.246 202.997C164.107 202.818 163.748 202.798 163.708 203.076C163.628 203.434 163.648 203.812 163.748 204.171C163.847 204.469 164.226 204.429 164.326 204.171C164.426 203.892 164.485 203.613 164.485 203.335C164.286 203.335 164.087 203.335 163.887 203.335C163.887 203.534 163.887 203.713 163.887 203.912C164.087 203.892 164.286 203.852 164.465 203.832C164.386 203.594 164.326 203.335 164.246 203.096C164.166 202.678 163.588 202.837 163.688 203.215Z" fill="#161616"/>
<path d="M164.147 204.648C167.356 202.997 170.865 202.121 174.313 201.146C176.008 200.669 177.682 200.151 179.297 199.475C180.852 198.838 182.347 198.042 183.882 197.326C187.291 195.734 190.979 194.699 194.548 193.525C198.256 192.292 201.944 191.058 205.651 189.844C206.01 189.725 205.851 189.148 205.492 189.267C201.784 190.501 198.096 191.734 194.388 192.948C190.88 194.102 187.271 195.137 183.902 196.669C182.148 197.465 180.434 198.4 178.639 199.097C177.005 199.733 175.33 200.231 173.636 200.708C170.306 201.663 166.937 202.539 163.828 204.131C163.509 204.31 163.808 204.827 164.147 204.648Z" fill="#161616"/>
<path d="M164.426 204.529C178.201 199.773 191.936 194.958 205.671 190.063C206.748 189.685 206.289 187.954 205.193 188.332C191.478 193.227 177.722 198.042 163.947 202.798C162.871 203.176 163.329 204.907 164.426 204.529Z" fill="#161616"/>
<path d="M162.871 185.307C165.462 185.566 167.675 187.138 170.227 187.635C170.606 187.715 170.765 187.138 170.386 187.058C167.795 186.541 165.542 184.969 162.871 184.71C162.492 184.691 162.492 185.287 162.871 185.307Z" fill="#161616"/>
<path d="M170.406 187.357C171.981 186.501 173.456 185.487 174.792 184.293C175.071 184.034 174.652 183.616 174.373 183.875C173.057 185.029 171.642 186.024 170.107 186.84C169.768 187.039 170.067 187.556 170.406 187.357Z" fill="#161616"/>
<path d="M163.489 184.173C164.745 183.278 166.04 182.422 167.376 181.627C167.715 181.428 167.396 180.91 167.077 181.109C165.741 181.905 164.446 182.741 163.19 183.656C162.871 183.895 163.17 184.412 163.489 184.173Z" fill="#161616"/>
<path d="M167.476 181.726C169.748 182.582 172.021 183.417 174.313 184.273C174.672 184.412 174.832 183.835 174.473 183.696C172.2 182.84 169.928 182.005 167.635 181.149C167.276 181.03 167.117 181.607 167.476 181.726Z" fill="#161616"/>
<path d="M161.077 187.576C167.077 189.426 172.998 191.555 178.799 193.963C179.158 194.102 179.317 193.525 178.958 193.386C173.157 190.978 167.236 188.849 161.236 186.999C160.857 186.879 160.698 187.456 161.077 187.576Z" fill="#161616"/>
<path d="M161.655 192.212C165.382 194.003 169.15 195.694 172.958 197.346C173.317 197.505 173.616 196.987 173.257 196.828C169.449 195.197 165.681 193.485 161.954 191.695C161.615 191.535 161.316 192.053 161.655 192.212Z" fill="#161616"/>
<path d="M162.193 197.325C164.226 198.36 166.26 199.415 168.293 200.449C168.632 200.628 168.931 200.111 168.592 199.932C166.559 198.897 164.525 197.843 162.492 196.808C162.153 196.629 161.854 197.146 162.193 197.325Z" fill="#161616"/>
<path d="M163.349 197.505C166.16 195.117 169.11 192.928 172.18 190.899C172.499 190.68 172.2 190.163 171.881 190.381C168.771 192.431 165.781 194.679 162.93 197.087C162.631 197.346 163.05 197.764 163.349 197.505Z" fill="#161616"/>
<path d="M162.612 193.426C164.206 192.311 165.801 191.197 167.396 190.063C167.715 189.844 167.416 189.327 167.097 189.546C165.502 190.66 163.907 191.774 162.313 192.908C162.013 193.127 162.313 193.645 162.612 193.426Z" fill="#161616"/>
<path d="M163.608 204.29C138.55 200.032 113.491 195.774 88.433 191.515C86.0806 173.747 83.7084 155.998 81.356 138.229C108.328 141.851 135.28 145.472 162.253 149.114C162.711 167.499 163.17 185.884 163.608 204.29Z" fill="white" stroke="#161616" stroke-width="1.79528" stroke-miterlimit="10"/>
<path d="M118.954 173.548C116.781 172.871 115.605 171.041 115.425 168.832C115.246 166.584 115.684 164.415 117.777 163.241C119.631 162.206 121.844 162.504 123.499 163.758C125.153 165.012 126.629 167.578 125.293 169.548C125.074 169.867 125.592 170.165 125.811 169.847C127.247 167.738 125.891 164.952 124.137 163.499C122.323 162.007 119.871 161.549 117.738 162.604C115.266 163.818 114.628 166.285 114.827 168.852C115.026 171.339 116.342 173.389 118.794 174.145C119.153 174.244 119.312 173.667 118.954 173.548Z" fill="#161616"/>
<path d="M119.512 173.767C118.595 172.255 118.894 170.145 120.369 169.091C121.844 168.036 123.957 168.474 125.074 169.827C125.313 170.125 125.731 169.708 125.492 169.409C124.177 167.837 121.705 167.399 119.99 168.613C118.276 169.847 117.917 172.314 118.993 174.065C119.193 174.384 119.711 174.085 119.512 173.767Z" fill="#161616"/>
<path d="M121.565 174.602C120.628 173.607 120.768 171.757 122.024 171.041C123.26 170.324 124.934 171.14 125.333 172.453C125.453 172.811 126.031 172.672 125.911 172.294C125.393 170.623 123.3 169.628 121.725 170.543C120.15 171.458 119.95 173.766 121.147 175.04C121.406 175.299 121.824 174.881 121.565 174.602Z" fill="#161616"/>
<path d="M123.1 175.995C123.878 176.274 124.775 175.816 125.074 175.08C125.393 174.344 124.974 173.548 124.276 173.229C123.579 172.911 122.741 173.09 122.362 173.767C122.004 174.423 122.123 175.319 122.721 175.796C123.02 176.035 123.439 175.617 123.14 175.378C122.343 174.762 122.901 173.309 123.957 173.747C124.416 173.926 124.735 174.403 124.515 174.901C124.296 175.378 123.738 175.617 123.26 175.438C122.901 175.299 122.741 175.876 123.1 175.995Z" fill="#161616"/>
<path d="M162.253 149.093L164.007 203.911" stroke="#161616" stroke-width="1.79528" stroke-miterlimit="10"/>
<path d="M162.372 149.054C162.911 167.081 163.449 185.108 163.987 203.136" stroke="#161616" stroke-width="1.79528" stroke-miterlimit="10"/>
<path opacity="0.37" d="M127.865 145.393C129.16 146.069 140.284 152.118 141.062 162.863C141.5 168.792 138.59 173.289 136.756 176.035C126.868 190.879 107.312 193.505 102.009 194.062C109.724 199.176 136.676 216.029 166.14 215.035C172.699 214.816 182.866 214.358 193.89 208.309C202.163 203.772 207.525 197.942 210.595 194.062C208.701 192.888 206.828 191.734 204.934 190.56C191.019 195.316 177.084 200.071 163.17 204.807C162.452 186.422 161.734 168.056 161.017 149.671C149.953 148.278 138.909 146.845 127.865 145.393Z" fill="#3D3D3D"/>
<path opacity="0.5" d="M112.016 195.356C114.608 197.067 118.615 199.514 123.798 201.862C130.257 204.807 149.375 213.522 170.087 208.687C185.138 205.165 196.78 195.515 196.023 193.923C195.544 192.928 189.703 193.963 163.688 204.29C163.269 195.873 162.851 187.436 162.452 179.02C161.734 186.103 160.997 193.187 160.279 200.25C144.192 198.639 128.104 196.987 112.016 195.356Z" fill="#3D3D3D"/>
<path d="M117.379 172.673C115.923 171.081 115.445 168.852 116.163 166.902C116.9 164.932 118.854 163.241 121.186 163.321C123.24 163.4 124.894 164.833 125.492 166.186C125.931 167.221 125.831 168.176 125.831 168.176C125.771 168.713 125.592 169.131 125.452 169.389C124.436 168.215 122.881 167.678 121.425 168.016C119.631 168.434 118.854 169.966 118.774 170.106C117.957 171.777 118.674 173.329 118.774 173.508C118.296 173.21 117.837 172.931 117.379 172.673Z" fill="#5222D0"/>
<path d="M218.25 147.482C217.174 148.278 216.018 149.352 214.961 150.765C211.034 156.038 211.572 162.226 211.851 164.236C208.363 163.519 202.502 162.823 195.584 164.415C191.458 165.37 188.148 166.862 185.716 168.215C186.095 168.454 186.613 168.732 187.271 168.912C190.999 169.926 194.926 166.802 195.046 167.021C195.166 167.22 190.66 169.329 190.899 171.16C191.059 172.394 193.272 173.05 195.564 173.747C197.498 174.324 199.332 174.881 201.784 174.602C205.153 174.224 207.485 172.533 208.522 171.657C209.519 172.155 210.994 172.811 212.848 173.389C216.257 174.423 220.962 175.856 224.091 173.906C226.125 172.632 226.743 169.648 227.899 163.718C229.374 156.117 230.112 152.317 228.078 149.909C225.387 146.706 219.985 147.243 218.25 147.482Z" fill="white" stroke="#161616" stroke-width="1.79528" stroke-miterlimit="10"/>
<path d="M211.173 164.435C213.585 165.33 215.579 166.962 216.955 169.13C217.154 169.449 217.672 169.15 217.473 168.832C216.018 166.524 213.885 164.813 211.333 163.857C210.974 163.738 210.814 164.315 211.173 164.435Z" fill="#161616"/>
<path d="M198.355 168.374C195.983 168.772 194.069 170.364 193.212 172.593C193.072 172.951 193.65 173.11 193.79 172.752C194.567 170.722 196.362 169.31 198.515 168.951C198.893 168.892 198.734 168.315 198.355 168.374Z" fill="#161616"/>
<path d="M193.491 172.971C194.727 174.145 196.441 174.543 198.056 174.025C198.415 173.906 198.256 173.329 197.897 173.448C196.481 173.906 194.986 173.587 193.91 172.553C193.631 172.274 193.212 172.692 193.491 172.971Z" fill="#161616"/>
<path d="M201.126 170.344C200.269 170.861 199.471 171.458 198.714 172.095C198.216 172.533 197.657 173.05 197.777 173.767C198.076 175.657 200.349 175.239 201.585 174.761C201.943 174.622 201.784 174.045 201.425 174.184C200.887 174.383 200.289 174.642 199.711 174.622C198.774 174.582 197.936 173.687 198.734 172.871C199.491 172.075 200.488 171.439 201.425 170.842C201.764 170.663 201.465 170.145 201.126 170.344Z" fill="#161616"/>
<path d="M217.254 119.088C218.071 119.725 219.128 120.6 220.244 121.734C220.563 122.053 221.38 122.888 222.198 123.923C223.473 125.515 224.291 127.027 225.188 128.878C226.344 131.245 227.5 133.613 228.657 137.155C229.633 140.14 231.129 144.836 231.308 151.083C231.388 153.551 231.228 155.62 231.069 157.073C230.251 156.137 229.434 155.521 228.756 155.123C224.949 152.795 220.324 153.63 215.958 154.426C214.323 154.725 212.968 155.083 212.031 155.341C212.27 153.153 212.489 150.964 212.728 148.775C212.928 146.945 213.107 145.094 213.307 143.244C212.928 142.587 212.409 141.652 211.931 140.478C210.994 138.229 209.12 133.812 210.197 128.858C211.473 123.167 215.958 119.943 217.254 119.088Z" fill="#EC615B"/>
<path d="M217.951 120.182C219.945 121.217 221.28 123.008 222.437 124.858C223.633 126.769 224.709 128.739 225.666 130.768C227.62 134.907 229.055 139.284 229.992 143.761C230.072 144.139 230.65 143.98 230.57 143.602C229.613 138.946 228.098 134.429 226.025 130.131C225.008 128.022 223.892 125.973 222.616 124.003C221.48 122.252 220.144 120.62 218.27 119.645C217.911 119.486 217.612 120.003 217.951 120.182Z" fill="#161616"/>
<path d="M211.732 140.418C212.649 142.289 213.605 144.119 214.602 145.95C214.782 146.288 215.3 145.99 215.121 145.651C214.124 143.821 213.167 141.99 212.25 140.12C212.07 139.762 211.552 140.06 211.732 140.418Z" fill="#161616"/>
<path d="M213.147 143.841C212.649 147.701 212.15 151.561 211.672 155.421C211.652 155.62 211.891 155.759 212.051 155.7C215.439 154.625 218.968 154.108 222.516 154.227C225.327 154.327 229.055 154.586 230.63 157.331C230.829 157.67 231.328 157.371 231.148 157.033C229.653 154.406 226.384 153.869 223.633 153.69C219.666 153.412 215.679 153.929 211.911 155.123C212.031 155.222 212.17 155.322 212.29 155.401C212.788 151.541 213.287 147.681 213.765 143.821C213.805 143.463 213.207 143.463 213.147 143.841Z" fill="#161616"/>
<path d="M229.952 143.463C230.65 147.84 231.786 152.476 230.61 156.874C230.51 157.252 231.089 157.411 231.188 157.033C232.384 152.536 231.248 147.8 230.53 143.304C230.471 142.926 229.892 143.085 229.952 143.463Z" fill="#161616"/>
<path opacity="0.32" d="M215.739 118.352C217.553 121.734 219.367 125.773 220.902 130.41C223.912 139.563 224.709 147.78 224.769 153.929C222.736 154.048 220.702 154.167 218.669 154.287C219.327 159.003 220.005 163.738 220.663 168.454C219.387 167.718 217.433 166.783 214.921 166.225C214.104 166.046 211.094 165.449 207.884 165.987C201.146 167.121 197.079 172.633 196.162 173.946C197.079 174.324 198.256 174.682 199.671 174.762C204.017 175.02 207.186 172.513 208.123 171.717C211.094 173.21 213.685 173.926 215.519 174.284C218.729 174.941 222.477 175.697 224.55 173.707C224.709 173.548 225.068 173.17 225.846 171.24C227.062 168.175 227.7 165.31 228.537 160.117C228.716 158.963 228.976 157.411 229.235 155.56C229.733 156.058 230.251 156.575 230.75 157.073C230.989 156.177 231.288 154.844 231.448 153.212C231.866 148.974 231.049 145.631 230.271 142.905C227.142 131.882 225.268 125.236 219.008 120.421C217.712 119.466 216.516 118.769 215.739 118.352Z" fill="#3D3D3D"/>
<path opacity="0.29" d="M226.284 131.981C227.62 138.468 227.799 143.98 227.7 147.959C227.6 151.66 227.221 154.366 226.822 157.092C225.646 165.31 225.048 169.409 222.776 171.319C218.47 174.941 210.795 172.195 208.961 171.498C210.695 172.652 216.935 176.572 223.035 174.403C223.673 174.165 224.37 173.866 225.048 173.428C225.766 172.215 226.723 170.344 227.341 167.897C227.7 166.444 227.799 165.39 227.939 164.156C228.158 162.166 228.537 159.261 229.175 155.62C229.753 156.117 230.351 156.615 230.929 157.112C231.128 156.097 231.388 154.545 231.447 152.635C231.627 148.019 230.61 144.517 229.434 140.518C228.796 138.329 227.799 135.384 226.284 131.981Z" fill="#3D3D3D"/>
<path d="M171.483 79.7499C171.682 81.879 172.041 84.8637 172.838 88.3856C173.357 90.6738 173.676 92.1263 174.354 93.937C175.37 96.663 177.304 101.876 182.347 105.279C183.564 106.114 185.577 107.229 188.408 107.885C188.866 107.925 189.325 107.985 189.783 108.025C189.943 108.86 190.142 110.094 190.341 111.586C190.82 115.427 190.581 116.6 191.577 117.635C192.793 118.889 194.727 118.769 195.146 118.73C198.475 118.511 200.15 115.208 200.229 115.029C199.691 114.054 199.153 112.86 198.714 111.467C197.757 108.383 197.737 105.637 197.897 103.766C199.432 101.558 201.126 99.8665 202.841 98.5533C203.499 98.0558 204.057 97.3793 205.034 97.0411C206.429 96.5635 207.147 97.0411 208.183 96.7227C209.898 96.1854 210.635 93.9768 210.954 93.0615C212.17 89.4401 210.675 85.8585 209.718 83.7295C208.861 81.7795 206.628 76.9444 201.186 73.1638C195.584 69.2639 184.381 64.9262 176.965 70.5572C175.689 71.5322 172.779 74.1388 171.483 79.7499Z" fill="white"/>
<path d="M172.32 87.948C171.044 87.7291 167.815 86.973 165.721 84.2072C162.532 80.0088 164.246 74.1389 166.021 71.0349C168.811 66.16 173.895 64.4687 180.274 62.3396C184.062 61.0861 187.67 59.8922 192.574 60.0912C195.285 60.2106 204.475 60.6085 209.977 67.4334C213.247 71.4727 213.606 75.8104 214.323 84.3664C214.662 88.2862 214.403 90.4153 213.725 92.4448C213.227 93.9173 211.612 98.633 206.967 100.523C204.535 101.518 202.282 101.319 201.046 101.12C202.163 99.4687 203.279 97.8371 204.416 96.1856C205.053 96.2254 207.326 96.2652 209.06 94.6933C211.433 92.5244 211.851 88.2066 210.117 87.0526C208.841 86.197 206.309 87.0327 204.116 89.0025C203.917 87.749 203.598 86.376 203.06 84.9633C200.548 78.218 195.086 74.517 192.415 72.9849C191.358 74.3379 188.009 78.2976 182.068 79.8695C177.364 81.1031 173.456 80.2276 171.722 79.7103C171.921 82.4562 172.121 85.2021 172.32 87.948Z" fill="#5222D0"/>
<path d="M171.323 80.2674C172.141 86.4158 172.998 92.803 176.008 98.3345C178.48 102.871 182.467 106.751 187.59 108.045C187.969 108.144 188.129 107.567 187.75 107.468C182.686 106.174 178.779 102.274 176.387 97.7575C173.536 92.3851 172.719 86.2168 171.921 80.2674C171.862 79.8894 171.263 79.8894 171.323 80.2674Z" fill="#161616"/>
<path d="M187.59 108.124C191.199 108.124 194.986 106.194 197.817 104.125C200.668 102.035 203 99.3492 204.675 96.2451C204.854 95.9069 204.336 95.6084 204.156 95.9467C202.542 98.9711 200.289 101.598 197.518 103.607C194.747 105.637 191.079 107.527 187.59 107.527C187.192 107.527 187.192 108.124 187.59 108.124Z" fill="#161616"/>
<path d="M197.797 103.647C197.398 107.667 198.176 111.686 200.01 115.287C200.189 115.626 200.708 115.327 200.528 114.989C198.734 111.467 198.016 107.567 198.395 103.647C198.435 103.269 197.837 103.269 197.797 103.647Z" fill="#161616"/>
<path d="M189.125 108.025C189.783 110.293 190.321 112.601 190.72 114.929C190.979 116.481 191.079 118.232 192.813 118.809C195.405 119.685 199.232 118.133 200.229 115.566C200.369 115.208 199.791 115.049 199.651 115.407C199.093 116.859 197.697 117.655 196.262 118.073C195.066 118.411 193.252 118.769 192.235 117.794C191.637 117.217 191.557 116.302 191.438 115.526C191.298 114.71 191.159 113.894 190.999 113.079C190.64 111.328 190.222 109.577 189.723 107.865C189.604 107.507 189.026 107.666 189.125 108.025Z" fill="#161616"/>
<path d="M189.982 110.492C193.531 110.034 195.863 107.328 197.578 104.423C197.777 104.085 197.259 103.787 197.059 104.125C195.485 106.831 193.292 109.477 189.982 109.895C189.604 109.955 189.604 110.552 189.982 110.492Z" fill="#161616"/>
<path d="M189.843 108.463C192.614 108.144 195.106 106.851 196.96 104.762C197.219 104.483 196.8 104.045 196.541 104.344C194.807 106.314 192.455 107.567 189.843 107.866C189.484 107.905 189.464 108.502 189.843 108.463Z" fill="#161616"/>
<path d="M189.943 108.024C192.175 107.706 194.189 106.791 195.903 105.338C196.202 105.079 195.764 104.662 195.485 104.92C193.85 106.313 191.916 107.169 189.783 107.467C189.404 107.507 189.564 108.084 189.943 108.024Z" fill="#161616"/>
<path d="M189.823 108.522C189.923 108.999 189.903 109.955 190.501 110.114C191.079 110.273 191.956 109.596 192.415 109.318C193.99 108.363 195.305 107.069 196.342 105.557C196.561 105.239 196.043 104.94 195.824 105.259C195.086 106.353 194.189 107.328 193.132 108.124C192.634 108.502 192.116 108.82 191.577 109.119C191.358 109.238 190.86 109.576 190.64 109.437C190.501 109.358 190.441 108.502 190.421 108.363C190.322 107.985 189.743 108.144 189.823 108.522Z" fill="#161616"/>
<path d="M190.102 109.079C191.817 108.383 193.431 107.507 194.946 106.453C195.265 106.234 194.966 105.716 194.647 105.935C193.172 106.97 191.617 107.825 189.943 108.502C189.584 108.641 189.743 109.218 190.102 109.079Z" fill="#161616"/>
<path d="M190.401 109.676C192.315 109 193.989 107.945 195.385 106.473C195.644 106.194 195.225 105.776 194.966 106.055C193.631 107.428 192.056 108.462 190.242 109.099C189.883 109.238 190.042 109.815 190.401 109.676Z" fill="#161616"/>
<path d="M190.72 109.357C192.135 108.74 193.431 107.905 194.548 106.83C194.827 106.572 194.408 106.154 194.129 106.412C193.033 107.447 191.797 108.243 190.421 108.84C190.062 108.999 190.361 109.516 190.72 109.357Z" fill="#161616"/>
<path d="M174.433 95.3896C171.184 94.2355 170.107 89.9973 170.426 86.933C170.765 83.5703 173.795 79.9091 177.503 81.4811C179.277 82.2372 179.935 84.1871 180.414 85.9182C180.912 87.7488 181.131 89.7784 180.653 91.6488C180.234 93.3003 179.218 94.8722 177.623 95.5885C176.028 96.3048 174.134 95.9069 173.058 94.534C172.818 94.2355 172.4 94.6533 172.639 94.9518C174.453 97.2798 177.862 96.8222 179.696 94.7727C182.029 92.1661 181.789 88.2065 180.793 85.0825C180.334 83.63 179.736 82.1178 178.4 81.2821C177.244 80.5459 175.769 80.3668 174.473 80.705C171.443 81.5208 169.868 84.7244 169.808 87.6493C169.748 90.8529 171.004 94.8125 174.314 95.9666C174.633 96.086 174.792 95.5089 174.433 95.3896Z" fill="#161616"/>
<path d="M181.331 89.4401C183.284 88.2661 185.657 88.1467 187.69 89.1615C188.029 89.3406 188.328 88.8232 187.989 88.6441C185.756 87.5299 183.165 87.6294 181.012 88.9227C180.713 89.1217 181.012 89.639 181.331 89.4401Z" fill="#161616"/>
<path d="M190.86 93.6784C188.607 91.5095 187.67 88.1468 188.547 85.1224C189.464 81.9785 192.614 79.2725 196.003 80.3867C199.751 81.6204 199.95 86.9729 198.973 90.1167C198.395 91.9672 197.239 93.8177 195.325 94.4942C193.411 95.1707 191.757 94.1559 190.222 93.0814C189.903 92.8626 189.604 93.3799 189.923 93.5988C191.179 94.4942 192.534 95.3896 194.129 95.3299C195.644 95.2702 197.02 94.4345 197.957 93.3003C200.07 90.7534 200.488 86.8734 199.611 83.7693C198.814 80.9439 196.462 79.1133 193.451 79.6107C190.581 80.0684 188.468 82.6551 187.83 85.3612C187.092 88.4851 188.089 91.8677 190.401 94.0962C190.72 94.3748 191.139 93.937 190.86 93.6784Z" fill="#161616"/>
<path d="M176.247 87.132C176.048 88.3856 176.267 89.5993 176.945 90.6738C177.084 90.8927 177.403 90.8529 177.483 90.5942C177.962 89.2213 177.284 87.8682 176.606 86.6943C176.466 86.4356 176.048 86.555 176.048 86.8535C176.068 87.908 176.287 88.9427 176.686 89.9177C176.825 90.2759 177.403 90.1167 177.264 89.7585C176.885 88.8233 176.666 87.8682 176.646 86.8535C176.466 86.9131 176.267 86.9529 176.088 87.0126C176.706 88.0672 177.344 89.2213 176.905 90.4549C177.084 90.435 177.264 90.4151 177.443 90.3753C176.845 89.4402 176.626 88.3856 176.805 87.2912C176.885 86.9131 176.307 86.754 176.247 87.132Z" fill="#161616"/>
<path d="M193.89 86.5748C193.89 86.3161 193.87 86.2564 193.75 86.0376C193.611 85.7789 193.192 85.8983 193.192 86.1967C193.212 87.4304 193.312 88.7635 194.269 89.639C194.468 89.8181 194.747 89.6788 194.787 89.4202C194.946 87.9477 194.508 86.5748 193.591 85.4207C193.391 85.182 193.033 85.4406 193.092 85.7192C193.332 86.6942 193.631 87.6493 193.989 88.5646C194.129 88.9227 194.707 88.7635 194.568 88.4054C194.189 87.4702 193.89 86.535 193.671 85.56C193.511 85.6595 193.332 85.759 193.172 85.8585C193.99 86.8932 194.328 88.1268 194.189 89.4401C194.368 89.3605 194.528 89.3008 194.707 89.2212C193.85 88.4452 193.81 87.2712 193.79 86.1967C193.611 86.2564 193.411 86.2962 193.232 86.3559C193.252 86.4355 193.272 86.5151 193.292 86.5947C193.292 86.9529 193.89 86.9529 193.89 86.5748Z" fill="#161616"/>
<path d="M183.324 90.4946C182.925 91.6885 182.587 92.9023 182.367 94.1359C182.248 94.7925 181.829 96.0262 182.128 96.6828C182.726 98.016 185.377 97.2002 186.295 96.7624C186.633 96.6032 186.334 96.0859 185.995 96.2451C185.258 96.6032 184.46 96.7823 183.643 96.7226C183.165 96.6828 182.786 96.6032 182.686 96.066C182.626 95.7675 182.826 94.9915 182.886 94.6533C183.125 93.2803 183.484 91.9472 183.922 90.6339C184.022 90.2956 183.444 90.1365 183.324 90.4946Z" fill="#161616"/>
<path d="M186.334 101.976C187.83 101.777 189.125 100.822 189.783 99.4488C189.943 99.1105 189.424 98.7921 189.265 99.1503C188.667 100.404 187.55 101.22 186.175 101.399C185.796 101.458 185.976 102.035 186.334 101.976Z" fill="#161616"/>
<path d="M174.991 85.4206C175.37 84.963 176.068 84.8834 176.546 85.2813C176.845 85.54 177.264 85.1023 176.965 84.8635C176.267 84.2666 175.191 84.3064 174.573 85.0028C174.314 85.2813 174.732 85.6992 174.991 85.4206Z" fill="#161616"/>
<path d="M192.096 84.3065C192.714 83.7693 193.651 83.7693 194.269 84.2866C194.568 84.5254 194.986 84.1075 194.687 83.8688C193.81 83.1126 192.534 83.1325 191.657 83.8887C191.378 84.1473 191.817 84.5652 192.096 84.3065Z" fill="#161616"/>
<path d="M199.95 87.0526C202.103 86.2965 204.316 85.8389 206.608 85.7195C206.987 85.6996 206.987 85.1027 206.608 85.1226C204.276 85.2419 202.003 85.6996 199.791 86.4756C199.432 86.6149 199.571 87.1919 199.95 87.0526Z" fill="#161616"/>
<path opacity="0.4" d="M202.92 62.2598C204.116 63.7919 208.722 70.0796 207.864 78.7152C207.386 83.5304 205.392 87.0722 204.136 88.9426C204.854 88.3855 205.472 88.0074 205.931 87.7487C207.147 87.0722 207.924 86.6544 208.921 86.714C209.22 86.7339 209.938 86.7936 210.456 87.2115C211.971 88.4849 211.453 93.0017 208.761 95.1109C207.286 96.2649 205.552 96.3843 204.675 96.3644C203.538 97.9761 202.382 99.5879 201.246 101.219C202.003 101.339 203.16 101.438 204.495 101.239C205.073 101.16 207.386 100.742 209.579 98.9909C211.732 97.2598 212.609 95.1507 213.187 93.718C214.782 89.7385 214.463 86.2365 213.905 79.9289C213.665 77.1234 213.526 75.6907 212.968 73.8004C212.37 71.751 211.433 68.7265 208.761 66.0204C206.848 64.0307 204.695 62.9164 202.92 62.2598Z" fill="#3D3D3D"/>
<path opacity="0.48" d="M183.663 79.2725C185.657 77.5016 187.889 75.2332 190.042 72.4078C191.378 70.6568 192.494 68.9655 193.411 67.3936C193.072 69.1843 192.734 70.9751 192.415 72.7659C191.637 73.8802 190.341 75.472 188.328 76.9246C186.554 78.1781 184.879 78.8745 183.663 79.2725Z" fill="#3D3D3D"/>
<path opacity="0.27" d="M197.837 77.0039C199.352 82.038 199.472 86.2563 199.332 89.042C199.232 91.1114 198.674 101.956 192.953 105.696C192.395 106.055 190.979 106.89 191.039 107.01C191.119 107.149 193.77 105.975 195.225 105.179C197.518 103.945 201.047 101.458 204.316 96.2052C204.854 96.2649 207.486 96.444 209.379 94.6333C211.672 92.4644 212.071 88.2063 210.257 86.9528C208.961 86.0574 206.489 86.8135 204.316 88.6043C204.097 87.689 203.818 86.7339 203.439 85.7191C201.944 81.7794 199.691 78.9141 197.837 77.0039Z" fill="#3D3D3D"/>
<path opacity="0.36" d="M193.033 106.85C193.551 108.442 194.069 110.034 194.588 111.646C195.305 113.834 196.003 116.043 196.701 118.232C197.099 118.152 198.076 117.874 198.933 116.998C199.791 116.123 200.07 115.168 200.169 114.77C199.392 113.238 198.475 110.91 198.156 107.965C197.997 106.433 198.036 105.079 198.156 103.945C196.462 104.92 194.747 105.895 193.033 106.85Z" fill="#3D3D3D"/>
<path opacity="0.43" d="M183.085 91.1914C182.088 93.3205 181.091 95.4296 180.095 97.5587C181.729 97.5189 183.344 97.499 184.979 97.4592C184.022 97.1607 183.045 96.8623 182.088 96.5638C182.407 94.773 182.746 92.9822 183.085 91.1914Z" fill="#3D3D3D"/>
</svg>
