<svg width="39" height="38" viewBox="0 0 39 38" fill="none" xmlns="http://www.w3.org/2000/svg">
<circle cx="19.214" cy="18.8683" r="18.8683" fill="#1F2626"/>
<g clip-path="url(#clip0_1_1520)">
<path fill-rule="evenodd" clip-rule="evenodd" d="M19.214 0C8.78925 0 0.345703 8.44354 0.345703 18.8682C0.345703 27.2175 5.74674 34.2695 13.2469 36.7695C14.1903 36.9346 14.5441 36.3686 14.5441 35.8733C14.5441 35.4251 14.5205 33.9393 14.5205 32.3591C9.77983 33.2317 8.55339 31.2034 8.17603 30.142C7.96376 29.5996 7.04393 27.925 6.24203 27.4769C5.58164 27.1231 4.63823 26.2505 6.21845 26.2269C7.70432 26.2033 8.76566 27.5948 9.11944 28.1609C10.8176 31.0147 13.5299 30.2128 14.6148 29.7175C14.7799 28.4911 15.2752 27.6656 15.8177 27.1939C11.6195 26.7222 7.23261 25.0948 7.23261 17.8777C7.23261 15.8257 7.96376 14.1276 9.16661 12.8068C8.97793 12.3351 8.31754 10.4011 9.35529 7.80674C9.35529 7.80674 10.9355 7.31145 14.5441 9.74073C16.0535 9.3162 17.6573 9.10393 19.2611 9.10393C20.8649 9.10393 22.4687 9.3162 23.9782 9.74073C27.5867 7.28786 29.167 7.80674 29.167 7.80674C30.2047 10.4011 29.5443 12.3351 29.3556 12.8068C30.5585 14.1276 31.2896 15.8022 31.2896 17.8777C31.2896 25.1184 26.8792 26.7222 22.681 27.1939C23.365 27.7835 23.9546 28.9156 23.9546 30.6845C23.9546 33.2081 23.931 35.2365 23.931 35.8733C23.931 36.3686 24.2848 36.9582 25.2282 36.7695C28.9738 35.5049 32.2286 33.0976 34.5344 29.8863C36.8403 26.6751 38.0811 22.8216 38.0822 18.8682C38.0822 8.44354 29.6387 0 19.214 0Z" fill="url(#paint0_linear_1_1520)"/>
</g>
<defs>
<linearGradient id="paint0_linear_1_1520" x1="0.345703" y1="18.4028" x2="38.0822" y2="18.4028" gradientUnits="userSpaceOnUse">
<stop stop-color="#00F5A0"/>
<stop offset="1" stop-color="#00D9F5"/>
</linearGradient>
<clipPath id="clip0_1_1520">
<rect width="37.7365" height="37.7365" fill="white" transform="translate(0.345703)"/>
</clipPath>
</defs>
</svg>
