<svg width="39" height="38" viewBox="0 0 39 38" fill="none" xmlns="http://www.w3.org/2000/svg">
<circle cx="19.7141" cy="19.0518" r="18.8683" fill="#DBFFFF"/>
<g clip-path="url(#clip0_303_1966)">
<path fill-rule="evenodd" clip-rule="evenodd" d="M19.7141 0.183594C9.2894 0.183594 0.845856 8.62714 0.845856 19.0518C0.845856 27.401 6.24689 34.4531 13.747 36.9531C14.6904 37.1182 15.0442 36.5521 15.0442 36.0569C15.0442 35.6087 15.0206 34.1229 15.0206 32.5426C10.28 33.4153 9.05354 31.387 8.67618 30.3256C8.46391 29.7832 7.54409 28.1086 6.74218 27.6605C6.0818 27.3067 5.13838 26.434 6.7186 26.4105C8.20447 26.3869 9.26581 27.7784 9.61959 28.3445C11.3177 31.1983 14.03 30.3964 15.115 29.9011C15.2801 28.6747 15.7754 27.8492 16.3178 27.3775C12.1196 26.9058 7.73277 25.2784 7.73277 18.0613C7.73277 16.0093 8.46391 14.3112 9.66676 12.9904C9.47808 12.5187 8.81769 10.5847 9.85545 7.99033C9.85545 7.99033 11.4357 7.49504 15.0442 9.92433C16.5537 9.49979 18.1575 9.28752 19.7613 9.28752C21.3651 9.28752 22.9689 9.49979 24.4783 9.92433C28.0869 7.47146 29.6671 7.99033 29.6671 7.99033C30.7049 10.5847 30.0445 12.5187 29.8558 12.9904C31.0586 14.3112 31.7898 15.9858 31.7898 18.0613C31.7898 25.302 27.3793 26.9058 23.1811 27.3775C23.8651 27.9671 24.4548 29.0992 24.4548 30.8681C24.4548 33.3917 24.4312 35.4201 24.4312 36.0569C24.4312 36.5521 24.785 37.1418 25.7284 36.9531C29.474 35.6885 32.7288 33.2812 35.0346 30.0699C37.3404 26.8587 38.5812 23.0052 38.5824 19.0518C38.5824 8.62714 30.1388 0.183594 19.7141 0.183594Z" fill="#5222D0"/>
</g>
<defs>
<clipPath id="clip0_303_1966">
<rect width="37.7365" height="37.7365" fill="white" transform="translate(0.845856 0.183594)"/>
</clipPath>
</defs>
</svg>
