<svg width="39" height="38" viewBox="0 0 39 38" fill="none" xmlns="http://www.w3.org/2000/svg">
<ellipse cx="19.8521" cy="19.0518" rx="18.8683" ry="18.8683" fill="#5222D0"/>
<path d="M10.5634 28.8886H14.5114V14.281H10.5634V28.8886ZM12.5374 7.83252C11.2214 7.83252 10.1686 8.88533 10.1686 10.2013C10.1686 11.5173 11.2214 12.5701 12.5374 12.5701C13.8534 12.5701 14.9062 11.5173 14.9062 10.2013C14.9062 8.88533 13.8534 7.83252 12.5374 7.83252ZM21.2231 16.5182V14.281H17.275V28.8886H21.2231V21.3874C21.2231 17.1762 26.6187 16.913 26.6187 21.3874V28.8886H30.5667V19.9398C30.5667 12.8333 23.0655 13.0965 21.2231 16.5182Z" fill="#DBFFFF"/>
</svg>
