<svg width="86" height="89" viewBox="0 0 86 89" fill="none" xmlns="http://www.w3.org/2000/svg">
<path d="M0.891296 0H85.9279V88.357H0.891296V0Z" fill="#F7DF1E"/>
<path d="M23.2495 73.8376L29.7571 69.7456C31.0125 72.0584 32.1545 74.0153 34.8939 74.0153C37.5198 74.0153 39.1753 72.948 39.1753 68.7966V40.5645H47.1666V68.914C47.1666 77.5141 42.3149 81.4286 35.2365 81.4286C28.8438 81.4286 25.133 77.9884 23.2493 73.8369" fill="#1F2626"/>
<path d="M51.5089 72.948L58.0156 69.0335C59.7285 71.94 61.9547 74.075 65.8931 74.075C69.2043 74.075 71.3158 72.3549 71.3158 69.9824C71.3158 67.1355 69.1468 66.1271 65.4935 64.467L63.4962 63.5767C57.7306 61.0268 53.9059 57.8241 53.9059 51.0625C53.9059 44.8349 58.4724 40.0898 65.6079 40.0898C70.6882 40.0898 74.3415 41.9287 76.9669 46.7329L70.7449 50.8844C69.3749 48.3343 67.8912 47.3261 65.6081 47.3261C63.2677 47.3261 61.7834 48.8682 61.7834 50.8844C61.7834 53.3755 63.2677 54.384 66.6922 55.9262L68.6899 56.8158C75.4827 59.8409 79.3073 62.9247 79.3073 69.8638C79.3073 77.3374 73.6563 81.4294 66.0646 81.4294C58.644 81.4294 53.849 77.7524 51.509 72.948" fill="#1F2626"/>
</svg>
