<svg width="91" height="90" viewBox="0 0 91 90" fill="none" xmlns="http://www.w3.org/2000/svg">
<path d="M0.492615 44.6505C0.492615 51.7187 7.09345 58.317 17.5002 62.0362C15.4221 72.9754 17.1278 81.7923 22.825 85.2279C28.6811 88.759 37.4054 86.3147 45.6858 78.7465C53.7574 86.0092 61.9151 88.8674 67.607 85.4221C73.4574 81.8808 75.237 72.4658 73.1014 61.1852C83.9406 57.4381 90.0037 51.8117 90.0037 44.6505C90.0037 37.7463 83.3906 31.7732 73.1242 28.0778C75.4233 16.3309 73.4752 7.72796 67.5422 4.1505C61.8221 0.7016 53.5697 3.70767 45.3794 11.1605C36.8589 3.2499 28.6879 0.834685 22.7606 4.42258C17.046 7.88129 15.4154 16.8584 17.5002 28.0001C7.44485 31.6659 0.492615 37.7739 0.492615 44.6505Z" fill="white"/>
<path d="M70.9501 31.7473C70.1255 31.4505 69.271 31.1697 68.3911 30.9041C68.5357 30.287 68.6685 29.6779 68.7865 29.0791C70.7236 19.2473 69.457 11.3267 65.1321 8.71893C60.9851 6.2184 54.203 8.8256 47.3533 15.0585C46.6947 15.6579 46.0341 16.2924 45.3739 16.9575C44.934 16.5174 44.4948 16.0922 44.0567 15.6855C36.8781 9.0209 29.6826 6.21234 25.362 8.82767C21.2189 11.3355 19.992 18.7816 21.7357 28.0992C21.9041 28.9992 22.1009 29.9183 22.3235 30.8528C21.3051 31.155 20.322 31.4773 19.3813 31.8201C10.9651 34.8881 5.59018 39.6966 5.59018 44.6841C5.59018 49.8354 11.3602 55.0021 20.1263 58.135C20.8181 58.3822 21.5359 58.616 22.2756 58.8379C22.0355 59.8486 21.8267 60.839 21.6513 61.8049C19.9887 70.9609 21.2871 78.2311 25.4192 80.723C29.6872 83.2965 36.8501 80.6513 43.8249 74.2764C44.3762 73.7724 44.9295 73.238 45.4837 72.6779C46.2021 73.4012 46.9194 74.0858 47.6328 74.7279C54.3888 80.8068 61.0614 83.2614 65.1896 80.7625C69.4533 78.1817 70.839 70.3718 69.04 60.8697C68.9026 60.144 68.7427 59.4026 68.5632 58.6481C69.0662 58.4926 69.56 58.3321 70.0416 58.1652C79.1547 55.008 85.0841 49.9042 85.0841 44.6841C85.0841 39.6785 79.5358 34.8377 70.9501 31.7473Z" fill="#53C1DE"/>
<path d="M68.9726 54.795C68.5379 54.9454 68.0919 55.0909 67.6374 55.2318C66.6314 51.9016 65.2735 48.3604 63.6119 44.7017C65.1976 41.1302 66.5029 37.6342 67.4808 34.3256C68.294 34.5716 69.0832 34.8311 69.8438 35.105C77.2 37.7529 81.6872 41.6678 81.6872 44.6844C81.6872 47.8976 76.8412 52.0688 68.9726 54.795ZM65.7077 61.5596C66.5032 65.7613 66.6168 69.5601 66.0898 72.5297C65.6164 75.1982 64.6642 76.9773 63.487 77.6898C60.9818 79.206 55.6244 77.2352 49.8466 72.0365C49.1842 71.4405 48.5171 70.8042 47.8478 70.1307C50.0877 67.5692 52.3263 64.5914 54.5112 61.2843C58.3541 60.9277 61.9848 60.3448 65.2774 59.5489C65.4395 60.2329 65.5836 60.9037 65.7077 61.5596ZM32.6905 77.4278C30.2429 78.3317 28.2934 78.3576 27.1151 77.6471C24.6076 76.1349 23.5651 70.2976 24.9871 62.4674C25.1499 61.5707 25.3438 60.6495 25.5672 59.708C28.8236 60.4609 32.4277 61.0027 36.2799 61.3292C38.4795 64.5654 40.7828 67.5399 43.1039 70.1445C42.5968 70.6564 42.0916 71.1437 41.5893 71.603C38.5051 74.4219 35.4143 76.4219 32.6905 77.4278ZM21.2236 54.7753C17.3474 53.39 14.1463 51.5896 11.9521 49.6249C9.98049 47.8594 8.98505 46.1067 8.98505 44.6844C8.98505 41.6578 13.3006 37.7973 20.4982 35.1733C21.3715 34.8549 22.2857 34.5549 23.2345 34.2731C24.2292 37.6564 25.5341 41.1938 27.1088 44.7708C25.5137 48.4009 24.1903 51.9947 23.1858 55.4177C22.5094 55.2144 21.8542 55.0005 21.2236 54.7753ZM25.0674 27.4176C23.5735 19.4344 24.5657 13.4122 27.0624 11.901C29.7219 10.2912 35.6027 12.5865 41.8009 18.3411C42.197 18.7089 42.5948 19.0938 42.9937 19.4921C40.684 22.0853 38.4018 25.0375 36.2217 28.2545C32.4831 28.6169 28.9043 29.1989 25.6139 29.9783C25.407 29.1082 25.2238 28.2534 25.0674 27.4176ZM59.3575 36.2708C58.5709 34.8502 57.7634 33.4632 56.9402 32.114C59.4765 32.4493 61.9066 32.8943 64.1887 33.4389C63.5035 35.7348 62.6496 38.1353 61.6444 40.5962C60.9233 39.1648 60.1606 37.7215 59.3575 36.2708ZM45.3741 22.0298C46.9405 23.8042 48.5091 25.7852 50.052 27.9347C48.4972 27.8579 46.9232 27.8179 45.3362 27.8179C43.7641 27.8179 42.2017 27.857 40.6566 27.9324C42.201 25.803 43.7832 23.8246 45.3741 22.0298ZM31.3011 36.2954C30.5154 37.72 29.7669 39.1555 29.0571 40.5935C28.0682 38.1412 27.2222 35.7298 26.5311 33.4013C28.7992 32.8706 31.2178 32.4367 33.738 32.1078C32.9032 33.4694 32.089 34.8666 31.3011 36.2951V36.2954ZM33.8106 57.5143C31.2068 57.2106 28.7518 56.799 26.4843 56.2829C27.1864 53.9129 28.0511 51.4499 29.0609 48.9448C29.7725 50.3819 30.524 51.8179 31.3146 53.2456H31.3147C32.12 54.7001 32.9543 56.1249 33.8106 57.5143ZM45.4681 67.5893C43.8585 65.7735 42.2531 63.765 40.6851 61.6044C42.2072 61.6669 43.759 61.6988 45.3362 61.6988C46.9565 61.6988 48.5582 61.6606 50.1348 61.5873C48.5868 63.7867 47.0238 65.7984 45.4681 67.5893ZM61.6768 48.8171C62.7393 51.3493 63.635 53.7994 64.3462 56.129C62.0413 56.6788 59.5528 57.1216 56.9308 57.4507C57.756 56.0833 58.5706 54.6725 59.3711 53.2212C60.1809 51.7529 60.9498 50.2824 61.6768 48.8171ZM56.4295 51.4473C55.1869 53.7001 53.9111 55.8507 52.616 57.8808C50.2571 58.0571 47.82 58.148 45.3362 58.148C42.8624 58.148 40.4561 58.0676 38.1389 57.9104C36.7915 55.8537 35.4881 53.6967 34.2533 51.4666H34.2536C33.0222 49.2426 31.8888 46.9998 30.8618 44.7696C31.8885 42.5342 33.0189 40.2889 34.2433 38.0689L34.243 38.0693C35.4707 35.8434 36.7627 33.6969 38.0976 31.6531C40.4617 31.4663 42.886 31.3688 45.336 31.3688H45.3362C47.7973 31.3688 50.2247 31.467 52.5881 31.6555C53.9026 33.6844 55.1859 35.8239 56.4183 38.0501C57.6648 40.3013 58.8098 42.5317 59.8452 44.7192C58.8129 46.9442 57.6704 49.1971 56.4295 51.4473ZM63.4349 11.7954C66.0969 13.4005 67.1321 19.874 65.4596 28.3627C65.3529 28.9043 65.2328 29.4561 65.1023 30.0152C61.8043 29.2195 58.223 28.6274 54.4734 28.2596C52.2891 25.0072 50.0256 22.0503 47.7535 19.4905C48.3644 18.876 48.9744 18.2902 49.5818 17.7373C55.4506 12.397 60.9358 10.2885 63.4349 11.7954Z" fill="white"/>
<path d="M45.3364 37.2617C49.2567 37.2617 52.4349 40.5847 52.4349 44.684C52.4349 48.7831 49.2567 52.1063 45.3364 52.1063C41.416 52.1063 38.2379 48.7831 38.2379 44.684C38.2379 40.5847 41.416 37.2617 45.3364 37.2617Z" fill="#53C1DE"/>
</svg>
