<svg width="90" height="90" viewBox="0 0 90 90" fill="none" xmlns="http://www.w3.org/2000/svg">
<g clip-path="url(#clip0_303_1889)">
<path d="M51.3063 88.6053C51.4406 88.3016 51.7794 88.0907 52.0255 87.8349C55.7814 83.8969 59.5692 79.9941 63.2738 76.0081C64.4331 74.9374 65.3289 73.613 65.8912 72.1385C66.4535 70.6641 66.667 69.0795 66.515 67.5087C66.3987 66.8361 66.2461 66.1703 66.0579 65.5142C65.0479 66.4731 64.1081 67.3457 63.162 68.2248C61.6916 69.5928 60.2276 70.9673 58.7445 72.3194C57.8699 73.2111 56.7454 73.8165 55.5195 74.0556C54.2937 74.2948 53.0241 74.1564 51.8785 73.6587C50.7189 73.2327 49.7099 72.4754 48.9768 71.481C48.2438 70.4866 47.8189 69.2987 47.7551 68.0649C47.7207 67.9062 47.6748 67.7502 47.6176 67.5982C46.4893 68.5572 45.4089 69.4394 44.3381 70.3472L22.0812 89.2062C21.9278 89.3373 21.7616 89.5003 21.6177 89.6282H51.2904L51.2456 89.5994C51.0858 89.4875 51.1689 88.8994 51.3063 88.6053Z" fill="#FFCEBF"/>
<path d="M20.2582 88.6049C20.5221 88.2612 20.8407 87.9632 21.2011 87.7227L52.0021 61.5917C54.1032 59.8081 56.1948 58.0149 58.2767 56.2121C58.534 56.0327 58.7356 55.7846 58.8585 55.4961C59.3565 53.326 59.4271 51.0797 59.0663 48.8827C58.7466 49.1064 58.574 49.2023 58.427 49.3589C55.905 51.6156 53.3958 53.8915 50.861 56.1354C50.0213 56.9805 48.9352 57.5376 47.759 57.7266C46.5827 57.9155 45.3768 57.7266 44.3147 57.187C43.231 56.6755 42.3241 55.8531 41.7094 54.8245C41.0946 53.7959 40.7998 52.6077 40.8625 51.411V50.3754C40.399 50.7142 40.0602 50.9412 39.7437 51.1969C27.4161 61.0675 15.0906 70.9307 2.76724 80.7864C2.21106 81.2307 1.5462 82.2216 0.817409 81.2595C0.0886195 80.2973 1.19779 79.901 1.75716 79.4535C14.8946 68.9116 28.0383 58.3793 41.1885 47.8566C43.3301 46.1401 43.4708 45.4209 42.0771 42.6943L41.2461 43.4743C38.967 45.5935 36.6624 47.684 34.4185 49.8384C33.498 50.7262 32.3452 51.3356 31.0932 51.5962C29.8411 51.8568 28.5409 51.758 27.3427 51.3111C26.1444 50.8642 25.097 50.0875 24.3214 49.0707C23.5457 48.0539 23.0735 46.8385 22.9592 45.5647C22.5341 45.8844 22.1665 46.1177 21.8181 46.3894L2.31974 61.5022C1.98345 61.8321 1.59993 62.11 1.1818 62.3269C0.86623 62.4223 0.527356 62.4053 0.22287 62.279V89.6437H20.2198C20.1455 89.4794 20.1103 89.3001 20.1169 89.1198C20.1236 88.9396 20.1719 88.7633 20.2582 88.6049Z" fill="#FFCEBF"/>
<path d="M74.2795 1.73639C73.7361 3.51681 73.2087 5.30042 72.7324 7.10002C72.2925 8.37176 72.3437 9.76198 72.8759 10.9979C73.4081 12.2339 74.383 13.2263 75.6092 13.7806C79.36 15.7522 83.5866 16.6378 87.8133 16.3378V2.04005C87.7663 1.72657 87.7837 1.40682 87.8644 1.10029C87.9539 0.926905 88.0669 0.766648 88.2 0.624023H74.2667C74.4809 0.873346 74.4074 1.31126 74.2795 1.73639Z" fill="#FF6196"/>
<path d="M46.2966 32.4511C46.2304 34.047 45.6721 35.5833 44.6984 36.8494C41.2175 41.3429 37.22 45.4111 32.7884 48.9704C32.0738 49.6319 31.168 50.0501 30.2009 50.1649C29.2339 50.2798 28.2554 50.0854 27.4056 49.6097C26.5599 49.2483 25.8468 48.634 25.3643 47.851C24.8818 47.068 24.6536 46.1548 24.711 45.2369C24.8134 44.1096 25.2815 43.0466 26.0439 42.2099C30.9995 37.4846 36.3686 33.2131 42.0869 29.4465C42.4614 29.1528 42.9188 28.9843 43.3943 28.9648C43.8698 28.9453 44.3395 29.0758 44.7368 29.3378C45.259 29.662 45.6811 30.1246 45.9565 30.6741C46.2318 31.2237 46.3495 31.8388 46.2966 32.4511Z" fill="#FF87AF"/>
<path d="M42.4637 51.8247C42.3896 51.1182 42.4803 50.4041 42.7287 49.7385C42.9772 49.0729 43.3767 48.4741 43.8958 47.989C48.7479 43.5137 53.9538 39.4377 59.4625 35.801C59.6287 35.6955 59.7821 35.59 59.9643 35.4813C60.4455 35.1339 61.0285 34.9564 61.6216 34.9767C62.2147 34.9969 62.7843 35.2138 63.2407 35.5932C63.6822 35.9672 63.9946 36.471 64.1335 37.0327C64.2724 37.5945 64.2306 38.1858 64.0142 38.7225C63.3173 41.0437 62.031 43.1449 60.2807 44.8213C56.7261 48.3232 53.1027 51.7547 49.4128 55.1139C48.8571 55.6853 48.1272 56.0558 47.3379 56.1669C46.5486 56.278 45.7447 56.1234 45.0529 55.7276C44.3259 55.3498 43.7069 54.7935 43.254 54.1107C42.8011 53.428 42.5291 52.6414 42.4637 51.8247Z" fill="#FF87AF"/>
<path d="M65.5291 53.9369C64.6341 54.8959 63.7135 55.81 62.8537 56.7913C62.5951 57.1706 62.3806 57.5781 62.2144 58.006C62.6874 58.1466 63.2404 58.5174 63.624 58.3864C65.577 57.7311 67.4821 56.9448 69.6269 56.1169C69.1602 57.1909 68.8086 58.1818 68.3132 59.0896C66.2721 62.5198 63.716 65.616 60.7344 68.2698C59.6007 69.363 58.4234 70.4082 57.2023 71.4055C56.5557 71.9421 55.7782 72.2973 54.9492 72.4348C54.1202 72.5723 53.2696 72.4871 52.4844 72.188C51.6992 71.8888 51.0075 71.3865 50.4801 70.7323C49.9528 70.0781 49.6086 69.2956 49.4829 68.4648C49.4317 68.0028 49.4725 67.5353 49.6031 67.0893C49.7337 66.6432 49.9514 66.2274 50.2437 65.8661C54.5935 61.1425 59.5646 57.0316 65.0209 53.646C65.0872 53.6203 65.1575 53.6063 65.2286 53.6045L65.5291 53.9369Z" fill="#FF87AF"/>
<path d="M72.8675 41.2051L78.3366 16.9121L82.1723 17.8103L80.1937 23.8228C78.3462 29.4166 76.4762 35.0104 74.6734 40.6106C74.3218 41.6462 73.8616 41.838 72.8675 41.2051Z" fill="#FF6196"/>
<path d="M66.6863 55.4936C67.2649 53.2848 67.8402 51.2423 68.3261 49.1774C68.7996 47.1749 69.7002 45.2984 70.9664 43.6763C71.7431 42.6567 72.6157 43.0626 73.5075 43.2832C74.3322 43.4845 74.54 44.0887 74.5751 44.8814C74.7052 47.0735 74.0376 49.2387 72.6956 50.977C71.098 52.9576 69.033 54.5097 66.6863 55.4936Z" fill="#FF6196"/>
<path d="M89.4803 3.24171C89.528 2.52981 89.5098 1.81503 89.426 1.10648C89.36 0.908567 89.2294 0.738575 89.0552 0.62382C88.9133 0.508442 88.7472 0.426503 88.5693 0.384087C88.4671 0.364908 88.3232 0.47039 88.1858 0.620623C88.0526 0.763248 87.9397 0.923506 87.8501 1.09689C87.7694 1.40342 87.752 1.72318 87.799 2.03665V16.3312C83.5723 16.6312 79.3457 15.7456 75.595 13.774C74.3687 13.2197 73.3939 12.2273 72.8616 10.9913C72.3294 9.75539 72.2782 8.36516 72.7182 7.09343C73.1944 5.29383 73.7218 3.51021 74.2652 1.72979C74.3931 1.30466 74.4666 0.86675 74.2652 0.617427C74.1532 0.496054 73.9986 0.422743 73.8337 0.412855C73.6226 0.415132 73.4181 0.487043 73.252 0.617427C73.0129 0.760406 72.8225 0.972029 72.7054 1.22475C72.0661 3.14262 71.5035 5.07967 71.0145 7.03589C70.8298 7.80678 70.7801 8.60381 70.8674 9.39167C70.9911 10.8172 71.5213 12.1773 72.3949 13.3105C73.2686 14.4437 74.4492 15.3024 75.7963 15.7846C76.4005 16.0371 76.7553 16.2864 76.5859 17.0823C76.3525 18.0924 76.1256 19.1025 75.8954 20.1158C74.3292 26.9817 72.7714 33.8509 71.2222 40.7232C71.1786 41.0297 71.0438 41.3159 70.8355 41.5447C69.8144 42.3563 68.9564 43.3542 68.3071 44.4855C67.4796 45.9783 66.907 47.5988 66.613 49.2801C66.5565 49.8165 66.3627 50.3291 66.0503 50.7687C65.7378 51.2082 65.3173 51.5598 64.8293 51.7893C63.4964 52.4638 62.2722 53.3364 60.7922 54.2442C60.8909 52.4645 60.8717 50.6802 60.7347 48.903C60.6221 48.3563 60.646 47.7902 60.8043 47.255C60.9627 46.7197 61.2505 46.2318 61.6425 45.8344C63.592 43.903 64.9816 41.4795 65.6636 38.8214C65.8673 38.2052 65.9232 37.5497 65.8267 36.908C65.7301 36.2663 65.484 35.6562 65.1081 35.1272C64.7322 34.5982 64.2371 34.1651 63.6628 33.8628C63.0885 33.5606 62.4512 33.3977 61.8023 33.3874C60.7517 33.3757 59.7202 33.6688 58.8328 34.2313C55.7827 36.3141 52.7856 38.4734 49.8444 40.7073C48.0959 42.0242 46.4498 43.4818 44.7556 44.8626C44.6826 44.7842 44.6193 44.6973 44.5671 44.6037C44.5347 44.3684 44.4712 44.1384 44.3785 43.9197C42.9624 41.7333 43.9438 40.1447 45.4812 38.5113C47.083 36.8323 47.9681 34.5955 47.9489 32.275C47.9986 31.0927 47.6283 29.931 46.9037 28.9955C46.5176 28.5206 46.0419 28.1263 45.5036 27.8352C44.739 27.4167 43.8647 27.242 42.998 27.3346C42.1313 27.4271 41.3136 27.7825 40.6546 28.353L39.7628 28.9923C37.7267 30.4499 35.665 31.8691 33.7055 33.429C30.845 35.7127 28.0461 38.0726 25.3117 40.5059C24.0331 41.6342 23.0997 43.1749 21.7732 44.2234C14.8561 49.6861 7.86546 55.0497 0.900403 60.4485C0.660908 60.5914 0.440694 60.7643 0.245131 60.9631C0.224999 60.9922 0.207864 61.0233 0.193988 61.0558C0.0469517 61.3979 -0.0777094 61.9636 0.0948987 62.1714C0.13721 62.2165 0.188348 62.2524 0.245131 62.2769C0.549617 62.4033 0.888492 62.4202 1.20407 62.3248C1.62219 62.1079 2.00571 61.83 2.342 61.5002L21.8403 46.3873C22.1887 46.1157 22.5563 45.8695 22.9815 45.5627C23.0958 46.8364 23.568 48.0519 24.3436 49.0686C25.1193 50.0854 26.1667 50.8621 27.3649 51.309C28.5632 51.7559 29.8634 51.8547 31.1154 51.5941C32.3675 51.3336 33.5203 50.7242 34.4407 49.8363C36.6782 47.6819 38.9893 45.5914 41.2683 43.4722L42.0994 42.6923C43.493 45.4188 43.3524 46.138 41.2108 47.8545C28.05 58.3857 14.8987 68.9191 1.75705 79.4546C1.19767 79.9021 0.0917025 80.308 0.817296 81.2606C1.54289 82.2131 2.21095 81.2318 2.76713 80.7875C15.0969 70.9403 27.4181 61.0803 39.7308 51.2076C40.0505 50.9519 40.3861 50.7249 40.8496 50.3861V51.4217C40.7869 52.6184 41.0817 53.8066 41.6965 54.8352C42.3112 55.8638 43.2181 56.6862 44.3018 57.1977C45.3639 57.7373 46.5698 57.9262 47.7461 57.7373C48.9223 57.5483 50.0084 56.9912 50.8481 56.1461C53.3829 53.9086 55.8921 51.6263 58.4141 49.3696C58.5739 49.2258 58.7593 49.1171 59.0534 48.8934C59.4142 51.0904 59.3436 53.3367 58.8456 55.5068C58.7227 55.7953 58.5211 56.0434 58.2638 56.2228C56.1797 58.0235 54.0882 59.8167 51.9892 61.6024L21.201 87.7366C20.8406 87.9771 20.522 88.2751 20.2581 88.6188C20.1739 88.7756 20.1266 88.9495 20.12 89.1274C20.1133 89.3052 20.1474 89.4822 20.2197 89.6449C20.3642 89.7531 20.5311 89.8274 20.7082 89.8622C20.8853 89.8971 21.0679 89.8916 21.2426 89.8462C21.3804 89.8062 21.5073 89.7351 21.6134 89.6385C21.7732 89.5106 21.933 89.3476 22.0769 89.2165L44.3337 70.3575C45.4045 69.4497 46.4849 68.5547 47.6133 67.6086C47.6704 67.7606 47.7164 67.9165 47.7507 68.0752C47.8146 69.309 48.2394 70.4969 48.9724 71.4913C49.7055 72.4858 50.7145 73.243 51.8741 73.669C53.0197 74.1667 54.2893 74.3051 55.5152 74.0659C56.7411 73.8268 57.8655 73.2214 58.7401 72.3297C60.2233 70.9776 61.6872 69.6031 63.1576 68.2351C64.1165 67.356 65.0435 66.4738 66.0536 65.5245C66.2418 66.1806 66.3943 66.8465 66.5107 67.5191C66.6576 69.0846 66.4416 70.663 65.8795 72.1315C65.3173 73.6 64.4242 74.9192 63.2695 75.9865C59.5648 79.9756 55.777 83.8785 52.0212 87.8133C51.775 88.069 51.4362 88.28 51.302 88.5836C51.1677 88.8873 51.0814 89.4818 51.2412 89.6097L51.286 89.6385C51.6211 89.8015 51.9981 89.8583 52.3664 89.8015C52.4696 89.7803 52.5616 89.7224 52.6253 89.6385C52.7148 89.5458 52.8011 89.4307 52.8874 89.3444C55.9304 86.1991 58.9894 83.0698 62.0101 79.9021C63.2293 78.6668 64.3756 77.3615 65.443 75.9928C66.835 74.4519 67.7579 72.5456 68.1033 70.498C68.4487 68.4504 68.2023 66.3468 67.3929 64.4345C67.3059 64.0081 67.3909 63.5646 67.6294 63.2007C67.8372 62.8427 68.0673 62.4942 68.3039 62.149C69.0607 61.1663 69.6911 60.0925 70.1802 58.9526C71.1253 56.155 72.576 53.5548 74.4602 51.2811C75.3264 50.1829 75.9224 48.8965 76.2 47.5256C76.4776 46.1547 76.4291 44.7378 76.0584 43.3891C75.9275 42.8763 75.9275 42.3388 76.0584 41.826C77.6758 36.8172 79.3412 31.8243 80.9906 26.8283L83.1961 20.1349L83.877 18.0668C85.3281 18.0668 86.6962 18.0381 88.0579 18.0668C89.1895 18.0988 89.5347 17.5682 89.5219 16.4686C89.4548 12.0575 89.4803 7.64961 89.4803 3.24171ZM32.785 48.9701C32.0703 49.6316 31.1645 50.0498 30.1975 50.1646C29.2304 50.2795 28.2519 50.0851 27.4021 49.6094C26.5564 49.248 25.8433 48.6337 25.3608 47.8507C24.8783 47.0677 24.6501 46.1545 24.7075 45.2366C24.8099 44.1093 25.278 43.0463 26.0405 42.2096C30.996 37.4843 36.3652 33.2128 42.0834 29.4462C42.3955 29.2255 42.7506 29.0731 43.1255 28.9987C43.3769 28.9523 43.6348 28.9523 43.8862 28.9987C44.1874 29.0573 44.4747 29.1723 44.7333 29.3375C45.256 29.662 45.6785 30.125 45.9538 30.6752C46.2292 31.2254 46.3467 31.8411 46.2931 32.454C46.2269 34.0499 45.6686 35.5862 44.6949 36.8523C41.2138 41.3446 37.2164 45.4118 32.785 48.9701ZM49.4065 55.136C48.8508 55.7075 48.1208 56.0779 47.3315 56.189C46.5422 56.3001 45.7384 56.1456 45.0465 55.7497C44.3182 55.3711 43.6984 54.8133 43.2454 54.1287C42.7924 53.4442 42.5212 52.6556 42.4574 51.8373C42.3832 51.1307 42.4739 50.4166 42.7224 49.751C42.9709 49.0855 43.3703 48.4866 43.8894 48.0016C48.7416 43.5262 53.9474 39.4503 59.4561 35.8135C59.6223 35.708 59.7757 35.6025 59.9579 35.4939C60.4391 35.1465 61.0221 34.969 61.6153 34.9892C62.2084 35.0095 62.7779 35.2263 63.2343 35.6057C63.6759 35.9798 63.9883 36.4835 64.1272 37.0453C64.266 37.6071 64.2243 38.1984 64.0078 38.7351C63.3109 41.0563 62.0247 43.1575 60.2744 44.8339C56.7487 48.3564 53.0824 51.7478 49.4129 55.1232L49.4065 55.136ZM68.3007 59.1028C66.2624 62.5276 63.7107 65.6194 60.7347 68.2702C59.601 69.3634 58.4237 70.4086 57.2026 71.4059C56.556 71.9426 55.7784 72.2978 54.9495 72.4352C54.1205 72.5727 53.2699 72.4876 52.4847 72.1884C51.6994 71.8893 51.0078 71.3869 50.4804 70.7327C49.953 70.0786 49.6089 69.296 49.4832 68.4652C49.4319 68.0033 49.4728 67.5357 49.6034 67.0897C49.734 66.6436 49.9517 66.2279 50.2439 65.8665C54.5937 61.143 59.5649 57.0321 65.0211 53.6465C65.0875 53.6208 65.1578 53.6067 65.2289 53.6049L65.5485 53.9246C64.6535 54.8835 63.733 55.7977 62.8731 56.779C62.6146 57.1583 62.4001 57.5658 62.2338 57.9936C62.7069 58.1343 63.2599 58.5051 63.6434 58.374C65.1873 57.8562 66.7057 57.2553 68.3326 56.616L69.6464 56.1045C69.1541 57.1913 68.8025 58.1822 68.3071 59.09L68.3007 59.1028ZM72.6894 50.9998C71.4971 52.5177 70.0026 53.7716 68.3007 54.6821C67.7743 54.9762 67.2341 55.2511 66.6801 55.5068C67.249 53.33 67.818 51.3131 68.3007 49.2737L68.3198 49.1906C68.7934 47.1881 69.694 45.3116 70.9601 43.6895C71.7368 42.6699 72.6095 43.0758 73.5013 43.2964C74.326 43.4978 74.5337 44.1019 74.5689 44.8946C74.7 47.0849 74.0347 49.2487 72.6958 50.987L72.6894 50.9998ZM80.1691 23.83C78.3215 29.4238 76.4516 35.0176 74.6488 40.6178C74.31 41.6694 73.8497 41.8612 72.8556 41.2283L77.5959 20.1541L78.3247 16.9193L82.1605 17.8175L81.3901 20.1541L80.1691 23.83Z" fill="#1F2626"/>
</g>
<defs>
<clipPath id="clip0_303_1889">
<rect width="89.5111" height="89.5111" fill="white" transform="translate(0.0111084 0.37793)"/>
</clipPath>
</defs>
</svg>
