<svg width="89" height="89" viewBox="0 0 89 89" fill="none" xmlns="http://www.w3.org/2000/svg">
<path d="M0.588196 44.1784V88.3569H44.7667H88.9452V44.1784V-0.000114441H44.7667H0.588196V44.1784Z" fill="#007ACC"/>
<path d="M20.1279 44.4716L20.0999 48.09L25.8501 48.09H31.6003V64.429L31.6003 80.7681H35.6676H39.7348V64.429V48.09H45.485H51.2352V44.5417C51.2352 42.5782 51.1932 40.9373 51.1371 40.8952C51.095 40.8391 44.0965 40.811 35.6115 40.8251L20.17 40.8671L20.1279 44.4716Z" fill="white"/>
<path d="M71.8823 40.7652C74.1263 41.3262 75.8374 42.3219 77.4082 43.9488C78.2216 44.8184 79.4277 46.4032 79.5259 46.7819C79.554 46.8941 75.7111 49.4746 73.383 50.9192C73.2988 50.9753 72.9622 50.6107 72.5836 50.0497C71.4476 48.3947 70.2554 47.6795 68.4322 47.5532C65.7534 47.3709 64.0284 48.7734 64.0424 51.1156C64.0424 51.8028 64.1406 52.2095 64.4211 52.7705C65.0101 53.9907 66.1041 54.72 69.5402 56.2066C75.8654 58.9275 78.5722 60.7226 80.2552 63.2752C82.1346 66.1222 82.5553 70.6663 81.279 74.0463C79.8765 77.7209 76.3984 80.2173 71.5037 81.0448C69.989 81.3112 66.3986 81.2692 64.7717 80.9746C61.2234 80.3435 57.8574 78.5904 55.7817 76.2903C54.9683 75.3927 53.3834 73.0506 53.4816 72.8823C53.5237 72.8262 53.8883 72.6018 54.2951 72.3633C54.6878 72.1389 56.1744 71.2834 57.5769 70.47L60.1154 68.9973L60.6484 69.7827C61.3917 70.9188 63.0186 72.4755 64.0003 72.9945C66.8193 74.4811 70.6902 74.2707 72.5976 72.5597C73.411 71.8164 73.7476 71.045 73.7476 69.909C73.7476 68.8851 73.6214 68.4363 73.0885 67.665C72.4013 66.6832 70.9988 65.8558 67.0157 64.1307C62.4576 62.1672 60.4941 60.947 58.6989 59.0116C57.6611 57.8896 56.6793 56.0944 56.2726 54.5937C55.936 53.3455 55.8518 50.218 56.1183 48.9557C57.058 44.5519 60.3819 41.4804 65.1784 40.5688C66.7352 40.2743 70.3536 40.3865 71.8823 40.7652Z" fill="white"/>
</svg>
